<svg xmlns="http://www.w3.org/2000/svg" xmlns:xlink="http://www.w3.org/1999/xlink" width="500" zoomAndPan="magnify" viewBox="0 0 375 374.999991" height="500" preserveAspectRatio="xMidYMid meet" version="1.0"><defs><g/><clipPath id="10e0729aa4"><path d="M 37.394531 50.1875 L 336.179688 50.1875 L 336.179688 348.972656 L 37.394531 348.972656 Z M 37.394531 50.1875 " clip-rule="nonzero"/></clipPath><clipPath id="d20d3427e5"><path d="M 186.789062 50.1875 C 104.28125 50.1875 37.394531 117.070312 37.394531 199.578125 C 37.394531 282.085938 104.28125 348.972656 186.789062 348.972656 C 269.296875 348.972656 336.179688 282.085938 336.179688 199.578125 C 336.179688 117.070312 269.296875 50.1875 186.789062 50.1875 Z M 186.789062 50.1875 " clip-rule="nonzero"/></clipPath><clipPath id="3033bf3159"><path d="M 37.394531 50.1875 L 335.894531 50.1875 L 335.894531 348.6875 L 37.394531 348.6875 Z M 37.394531 50.1875 " clip-rule="nonzero"/></clipPath><clipPath id="a5a7c3995e"><path d="M 186.785156 50.1875 C 104.28125 50.1875 37.394531 117.070312 37.394531 199.578125 C 37.394531 282.082031 104.28125 348.96875 186.785156 348.96875 C 269.292969 348.96875 336.175781 282.082031 336.175781 199.578125 C 336.175781 117.070312 269.292969 50.1875 186.785156 50.1875 Z M 186.785156 50.1875 " clip-rule="nonzero"/></clipPath><clipPath id="294a6ed835"><path d="M 69.378906 77.847656 L 305.628906 77.847656 L 305.628906 314.097656 L 69.378906 314.097656 Z M 69.378906 77.847656 " clip-rule="nonzero"/></clipPath><clipPath id="ce3a4a46d5"><path d="M 187.578125 77.847656 C 122.296875 77.847656 69.378906 130.769531 69.378906 196.046875 C 69.378906 261.328125 122.296875 314.25 187.578125 314.25 C 252.859375 314.25 305.78125 261.328125 305.78125 196.046875 C 305.78125 130.769531 252.859375 77.847656 187.578125 77.847656 Z M 187.578125 77.847656 " clip-rule="nonzero"/></clipPath><clipPath id="256012acfc"><path d="M 84.417969 93.679688 L 289.160156 93.679688 L 289.160156 298.421875 L 84.417969 298.421875 Z M 84.417969 93.679688 " clip-rule="nonzero"/></clipPath><clipPath id="73dd737732"><path d="M 186.789062 93.679688 C 130.25 93.679688 84.417969 139.511719 84.417969 196.050781 C 84.417969 252.589844 130.25 298.421875 186.789062 298.421875 C 243.328125 298.421875 289.160156 252.589844 289.160156 196.050781 C 289.160156 139.511719 243.328125 93.679688 186.789062 93.679688 Z M 186.789062 93.679688 " clip-rule="nonzero"/></clipPath><clipPath id="997e6e3d6b"><path d="M 187.414062 280.851562 L 200.679688 280.851562 L 200.679688 291.5625 L 187.414062 291.5625 Z M 187.414062 280.851562 " clip-rule="nonzero"/></clipPath><clipPath id="349640d6ad"><path d="M 262.007812 223.371094 L 276.371094 223.371094 L 276.371094 232 L 262.007812 232 Z M 262.007812 223.371094 " clip-rule="nonzero"/></clipPath><clipPath id="fd666cf01a"><path d="M 174.53125 281 L 187.796875 281 L 187.796875 291.5625 L 174.53125 291.5625 Z M 174.53125 281 " clip-rule="nonzero"/></clipPath><clipPath id="4c02b6c562"><path d="M 98.785156 223 L 114 223 L 114 233 L 98.785156 233 Z M 98.785156 223 " clip-rule="nonzero"/></clipPath><clipPath id="31490bb830"><path d="M 172 100.3125 L 205 100.3125 L 205 131 L 172 131 Z M 172 100.3125 " clip-rule="nonzero"/></clipPath><clipPath id="f33525e678"><path d="M 140.710938 149.179688 L 234.449219 149.179688 L 234.449219 242.921875 L 140.710938 242.921875 Z M 140.710938 149.179688 " clip-rule="nonzero"/></clipPath><clipPath id="4894e3a81e"><path d="M 187.582031 149.179688 C 161.695312 149.179688 140.710938 170.164062 140.710938 196.050781 C 140.710938 221.9375 161.695312 242.921875 187.582031 242.921875 C 213.464844 242.921875 234.449219 221.9375 234.449219 196.050781 C 234.449219 170.164062 213.464844 149.179688 187.582031 149.179688 Z M 187.582031 149.179688 " clip-rule="nonzero"/></clipPath><clipPath id="6541a882e2"><path d="M 150 212 L 224.984375 212 L 224.984375 229 L 150 229 Z M 150 212 " clip-rule="nonzero"/></clipPath><clipPath id="42fda624fd"><path d="M 152 164.160156 L 223 164.160156 L 223 203 L 152 203 Z M 152 164.160156 " clip-rule="nonzero"/></clipPath></defs><g clip-path="url(#10e0729aa4)"><g clip-path="url(#d20d3427e5)"><path fill="#ee8124" d="M 37.394531 50.1875 L 336.179688 50.1875 L 336.179688 348.972656 L 37.394531 348.972656 Z M 37.394531 50.1875 " fill-opacity="1" fill-rule="nonzero"/></g></g><g clip-path="url(#3033bf3159)"><g clip-path="url(#a5a7c3995e)"><path stroke-linecap="butt" transform="matrix(0.75, 0, 0, 0.75, 37.395888, 50.186195)" fill="none" stroke-linejoin="miter" d="M 199.185704 0.00173986 C 89.180488 0.00173986 -0.00180949 89.178829 -0.00180949 199.189253 C -0.00180949 309.194468 89.180488 398.376766 199.185704 398.376766 C 309.196127 398.376766 398.373217 309.194468 398.373217 199.189253 C 398.373217 89.178829 309.196127 0.00173986 199.185704 0.00173986 Z M 199.185704 0.00173986 " stroke="#042d62" stroke-width="8" stroke-opacity="1" stroke-miterlimit="4"/></g></g><g fill="#ffffff" fill-opacity="1"><g transform="translate(73.404804, 248.979952)"><g><path d="M -7.15625 1.953125 C -8.507812 2.460938 -9.828125 2.625 -11.109375 2.4375 C -12.390625 2.25 -13.523438 1.738281 -14.515625 0.90625 C -15.503906 0.0703125 -16.25 -1.003906 -16.75 -2.328125 C -17.375 -3.960938 -17.472656 -5.519531 -17.046875 -7 C -16.617188 -8.488281 -15.738281 -9.707031 -14.40625 -10.65625 L -13.015625 -6.984375 C -13.484375 -6.484375 -13.769531 -5.925781 -13.875 -5.3125 C -13.976562 -4.695312 -13.914062 -4.070312 -13.6875 -3.4375 C -13.289062 -2.40625 -12.613281 -1.703125 -11.65625 -1.328125 C -10.707031 -0.953125 -9.632812 -0.992188 -8.4375 -1.453125 C -7.226562 -1.898438 -6.382812 -2.582031 -5.90625 -3.5 C -5.425781 -4.414062 -5.382812 -5.390625 -5.78125 -6.421875 C -6.007812 -7.054688 -6.367188 -7.566406 -6.859375 -7.953125 C -7.359375 -8.335938 -7.945312 -8.5625 -8.625 -8.625 L -10.015625 -12.296875 C -8.367188 -12.472656 -6.898438 -12.140625 -5.609375 -11.296875 C -4.316406 -10.460938 -3.359375 -9.226562 -2.734375 -7.59375 C -2.234375 -6.269531 -2.082031 -4.96875 -2.28125 -3.6875 C -2.488281 -2.40625 -3.007812 -1.269531 -3.84375 -0.28125 C -4.6875 0.695312 -5.789062 1.441406 -7.15625 1.953125 Z M -7.15625 1.953125 "/></g></g></g><g fill="#ffffff" fill-opacity="1"><g transform="translate(65.477729, 225.290813)"><g><path d="M -16.765625 -11.484375 L -2.25 -13.84375 L -1.671875 -10.3125 L -7.640625 -9.34375 L -6.75 -3.84375 L -0.78125 -4.8125 L -0.203125 -1.28125 L -14.71875 1.078125 L -15.296875 -2.453125 L -9.609375 -3.375 L -10.5 -8.875 L -16.1875 -7.953125 Z M -16.765625 -11.484375 "/></g></g></g><g fill="#ffffff" fill-opacity="1"><g transform="translate(62.411579, 201.155105)"><g><path d="M 0.46875 -8.25 C 0.414062 -6.863281 0.046875 -5.609375 -0.640625 -4.484375 C -1.328125 -3.359375 -2.257812 -2.476562 -3.4375 -1.84375 C -4.613281 -1.207031 -5.921875 -0.921875 -7.359375 -0.984375 C -8.796875 -1.035156 -10.070312 -1.421875 -11.1875 -2.140625 C -12.300781 -2.867188 -13.15625 -3.820312 -13.75 -5 C -14.34375 -6.175781 -14.613281 -7.457031 -14.5625 -8.84375 C -14.507812 -10.21875 -14.140625 -11.46875 -13.453125 -12.59375 C -12.765625 -13.71875 -11.835938 -14.585938 -10.671875 -15.203125 C -9.503906 -15.816406 -8.203125 -16.097656 -6.765625 -16.046875 C -5.328125 -15.984375 -4.046875 -15.59375 -2.921875 -14.875 C -1.796875 -14.164062 -0.9375 -13.226562 -0.34375 -12.0625 C 0.25 -10.894531 0.519531 -9.625 0.46875 -8.25 Z M -2.796875 -8.375 C -2.753906 -9.539062 -3.109375 -10.488281 -3.859375 -11.21875 C -4.609375 -11.957031 -5.625 -12.351562 -6.90625 -12.40625 C -8.207031 -12.457031 -9.253906 -12.144531 -10.046875 -11.46875 C -10.847656 -10.800781 -11.269531 -9.882812 -11.3125 -8.71875 C -11.363281 -7.53125 -11.019531 -6.566406 -10.28125 -5.828125 C -9.550781 -5.097656 -8.53125 -4.707031 -7.21875 -4.65625 C -5.914062 -4.601562 -4.863281 -4.910156 -4.0625 -5.578125 C -3.269531 -6.253906 -2.847656 -7.1875 -2.796875 -8.375 Z M -2.796875 -8.375 "/></g></g></g><g fill="#ffffff" fill-opacity="1"><g transform="translate(64.408121, 175.754118)"><g><path d="M -13.140625 -8.140625 L -4.59375 -6.0625 C -3.738281 -5.851562 -3.03125 -5.90625 -2.46875 -6.21875 C -1.90625 -6.53125 -1.519531 -7.097656 -1.3125 -7.921875 C -1.125 -8.722656 -1.207031 -9.394531 -1.5625 -9.9375 C -1.914062 -10.488281 -2.519531 -10.867188 -3.375 -11.078125 L -11.921875 -13.15625 L -11.078125 -16.625 L -2.546875 -14.5625 C -1.273438 -14.25 -0.265625 -13.710938 0.484375 -12.953125 C 1.234375 -12.203125 1.71875 -11.316406 1.9375 -10.296875 C 2.164062 -9.273438 2.144531 -8.203125 1.875 -7.078125 C 1.59375 -5.941406 1.125 -4.984375 0.46875 -4.203125 C -0.1875 -3.421875 -1.019531 -2.878906 -2.03125 -2.578125 C -3.039062 -2.285156 -4.179688 -2.296875 -5.453125 -2.609375 L -13.984375 -4.671875 Z M -13.140625 -8.140625 "/></g></g></g><g fill="#ffffff" fill-opacity="1"><g transform="translate(70.868545, 152.819774)"><g><path d="M -10.5 -12.34375 C -9.84375 -13.75 -8.992188 -14.847656 -7.953125 -15.640625 C -6.910156 -16.441406 -5.75 -16.894531 -4.46875 -17 C -3.195312 -17.113281 -1.898438 -16.863281 -0.578125 -16.25 C 0.734375 -15.644531 1.757812 -14.820312 2.5 -13.78125 C 3.238281 -12.738281 3.640625 -11.554688 3.703125 -10.234375 C 3.773438 -8.921875 3.488281 -7.566406 2.84375 -6.171875 L 0.546875 -1.171875 L -12.796875 -7.34375 Z M -0.046875 -7.265625 C 0.515625 -8.492188 0.613281 -9.601562 0.25 -10.59375 C -0.101562 -11.59375 -0.894531 -12.375 -2.125 -12.9375 C -3.351562 -13.507812 -4.460938 -13.609375 -5.453125 -13.234375 C -6.453125 -12.867188 -7.234375 -12.070312 -7.796875 -10.84375 L -8.515625 -9.296875 L -0.765625 -5.71875 Z M -0.046875 -7.265625 "/></g></g></g><g fill="#ffffff" fill-opacity="1"><g transform="translate(81.843962, 131.171278)"><g><path d="M -3.640625 -20 L 8.25 -11.34375 L 6.15625 -8.453125 L 1.265625 -12.015625 L -2.015625 -7.5 L 2.875 -3.9375 L 0.765625 -1.046875 L -11.125 -9.703125 L -9.015625 -12.59375 L -4.359375 -9.203125 L -1.078125 -13.71875 L -5.734375 -17.109375 Z M -3.640625 -20 "/></g></g></g><g fill="#ffffff" fill-opacity="1"><g transform="translate(96.878012, 112.017495)"><g><path d="M 5.921875 -8.984375 L 1.890625 -5.28125 L 3 -2.765625 L 0.234375 -0.21875 L -5.8125 -14.640625 L -2.765625 -17.453125 L 11.109375 -10.234375 L 8.328125 -7.671875 Z M 3.390625 -10.390625 L -1.625 -13.109375 L 0.71875 -7.9375 Z M 3.390625 -10.390625 "/></g></g></g><g fill="#ffffff" fill-opacity="1"><g transform="translate(115.531587, 96.116536)"><g><path d="M 7.484375 -4.625 L 1.953125 -7.734375 L 1.21875 -7.28125 L 4.140625 -2.5625 L 1.109375 -0.6875 L -6.625 -13.1875 L -1.515625 -16.34375 C -0.535156 -16.957031 0.40625 -17.304688 1.3125 -17.390625 C 2.226562 -17.472656 3.039062 -17.320312 3.75 -16.9375 C 4.457031 -16.550781 5.039062 -15.992188 5.5 -15.265625 C 6.007812 -14.429688 6.234375 -13.539062 6.171875 -12.59375 C 6.117188 -11.644531 5.71875 -10.753906 4.96875 -9.921875 L 10.90625 -6.75 Z M -0.109375 -9.4375 L 1.78125 -10.609375 C 2.34375 -10.953125 2.675781 -11.34375 2.78125 -11.78125 C 2.882812 -12.226562 2.785156 -12.703125 2.484375 -13.203125 C 2.191406 -13.679688 1.820312 -13.96875 1.375 -14.0625 C 0.925781 -14.164062 0.421875 -14.046875 -0.140625 -13.703125 L -2.03125 -12.53125 Z M -0.109375 -9.4375 "/></g></g></g><g fill="#ffffff" fill-opacity="1"><g transform="translate(135.321718, 84.848434)"><g><path d="M 7.671875 -18.734375 L 6.46875 -7.703125 L 8.21875 -3.171875 L 4.890625 -1.890625 L 3.140625 -6.421875 L -5.171875 -13.765625 L -1.375 -15.234375 L 3.515625 -10.515625 L 3.921875 -17.28125 Z M 7.671875 -18.734375 "/></g></g></g><g fill="#ffffff" fill-opacity="1"><g transform="translate(157.501834, 77.421825)"><g/></g></g><g fill="#ffffff" fill-opacity="1"><g transform="translate(171.00817, 74.714746)"><g><path d="M 0.234375 -7.40625 C 0.148438 -8.851562 0.390625 -10.160156 0.953125 -11.328125 C 1.515625 -12.492188 2.332031 -13.425781 3.40625 -14.125 C 4.488281 -14.832031 5.738281 -15.226562 7.15625 -15.3125 C 8.90625 -15.425781 10.425781 -15.0625 11.71875 -14.21875 C 13.007812 -13.382812 13.910156 -12.179688 14.421875 -10.609375 L 10.515625 -10.375 C 10.179688 -10.96875 9.734375 -11.40625 9.171875 -11.6875 C 8.617188 -11.976562 8.003906 -12.101562 7.328125 -12.0625 C 6.222656 -12 5.347656 -11.5625 4.703125 -10.75 C 4.066406 -9.945312 3.785156 -8.90625 3.859375 -7.625 C 3.941406 -6.332031 4.347656 -5.328125 5.078125 -4.609375 C 5.816406 -3.890625 6.738281 -3.5625 7.84375 -3.625 C 8.519531 -3.664062 9.113281 -3.863281 9.625 -4.21875 C 10.144531 -4.570312 10.535156 -5.0625 10.796875 -5.6875 L 14.703125 -5.921875 C 14.390625 -4.316406 13.640625 -3.019531 12.453125 -2.03125 C 11.273438 -1.039062 9.8125 -0.488281 8.0625 -0.375 C 6.644531 -0.289062 5.359375 -0.53125 4.203125 -1.09375 C 3.046875 -1.664062 2.117188 -2.492188 1.421875 -3.578125 C 0.722656 -4.671875 0.328125 -5.945312 0.234375 -7.40625 Z M 0.234375 -7.40625 "/></g></g></g><g fill="#ffffff" fill-opacity="1"><g transform="translate(195.984437, 74.129494)"><g><path d="M 15.921875 -12.625 L 13.890625 1.9375 L 10.359375 1.4375 L 11.1875 -4.546875 L 5.65625 -5.3125 L 4.828125 0.671875 L 1.28125 0.171875 L 3.3125 -14.390625 L 6.859375 -13.890625 L 6.0625 -8.1875 L 11.59375 -7.421875 L 12.390625 -13.125 Z M 15.921875 -12.625 "/></g></g></g><g fill="#ffffff" fill-opacity="1"><g transform="translate(219.963833, 78.361294)"><g><path d="M 10.734375 0.984375 L 5.546875 -0.8125 L 3.84375 1.34375 L 0.3125 0.109375 L 10.1875 -12.03125 L 14.09375 -10.671875 L 14.265625 4.96875 L 10.703125 3.734375 Z M 10.765625 -1.921875 L 10.8125 -7.609375 L 7.34375 -3.125 Z M 10.765625 -1.921875 "/></g></g></g><g fill="#ffffff" fill-opacity="1"><g transform="translate(242.778558, 87.320875)"><g><path d="M 7.609375 4.421875 L 7.734375 -1.921875 L 7 -2.34375 L 4.21875 2.453125 L 1.125 0.65625 L 8.515625 -12.0625 L 13.71875 -9.046875 C 14.71875 -8.460938 15.460938 -7.785156 15.953125 -7.015625 C 16.453125 -6.253906 16.703125 -5.472656 16.703125 -4.671875 C 16.703125 -3.867188 16.484375 -3.09375 16.046875 -2.34375 C 15.554688 -1.488281 14.878906 -0.863281 14.015625 -0.46875 C 13.148438 -0.0820312 12.171875 -0.03125 11.078125 -0.3125 L 11.09375 6.4375 Z M 8.28125 -4.53125 L 10.203125 -3.421875 C 10.765625 -3.085938 11.269531 -2.976562 11.71875 -3.09375 C 12.164062 -3.21875 12.535156 -3.53125 12.828125 -4.03125 C 13.109375 -4.519531 13.1875 -4.984375 13.0625 -5.421875 C 12.9375 -5.859375 12.59375 -6.242188 12.03125 -6.578125 L 10.109375 -7.6875 Z M 8.28125 -4.53125 "/></g></g></g><g fill="#ffffff" fill-opacity="1"><g transform="translate(262.041632, 99.411032)"><g><path d="M 9.578125 4.921875 L 5.453125 1.3125 L 3.078125 2.671875 L 0.25 0.21875 L 13.921875 -7.359375 L 17.046875 -4.640625 L 11.390625 9.921875 L 8.546875 7.4375 Z M 10.703125 2.21875 L 12.859375 -3.03125 L 7.96875 -0.171875 Z M 10.703125 2.21875 "/></g></g></g><g fill="#ffffff" fill-opacity="1"><g transform="translate(279.894262, 116.138772)"><g><path d="M 8.8125 11.453125 L 6.609375 8.609375 L 10.15625 -1.65625 L 2.96875 3.859375 L 0.796875 1.03125 L 12.453125 -7.921875 L 14.625 -5.09375 L 11.046875 5.203125 L 18.265625 -0.34375 L 20.46875 2.5 Z M 8.8125 11.453125 "/></g></g></g><g fill="#ffffff" fill-opacity="1"><g transform="translate(294.203762, 136.684929)"><g/></g></g><g fill="#ffffff" fill-opacity="1"><g transform="translate(300.489676, 149.019916)"><g><path d="M 2.15625 6.25 C 1.789062 5.238281 1.617188 4.273438 1.640625 3.359375 C 1.671875 2.441406 1.914062 1.625 2.375 0.90625 C 2.84375 0.195312 3.523438 -0.332031 4.421875 -0.6875 L 5.75 2.890625 C 5.257812 3.128906 4.929688 3.445312 4.765625 3.84375 C 4.609375 4.238281 4.617188 4.679688 4.796875 5.171875 C 4.984375 5.671875 5.242188 6.023438 5.578125 6.234375 C 5.910156 6.441406 6.285156 6.46875 6.703125 6.3125 C 7.035156 6.1875 7.269531 5.96875 7.40625 5.65625 C 7.550781 5.34375 7.632812 4.988281 7.65625 4.59375 C 7.675781 4.207031 7.660156 3.675781 7.609375 3 C 7.554688 2 7.566406 1.164062 7.640625 0.5 C 7.710938 -0.15625 7.941406 -0.785156 8.328125 -1.390625 C 8.710938 -1.992188 9.332031 -2.457031 10.1875 -2.78125 C 11.46875 -3.25 12.644531 -3.148438 13.71875 -2.484375 C 14.789062 -1.828125 15.601562 -0.753906 16.15625 0.734375 C 16.707031 2.253906 16.789062 3.613281 16.40625 4.8125 C 16.019531 6.019531 15.195312 6.890625 13.9375 7.421875 L 12.609375 3.796875 C 13.035156 3.609375 13.320312 3.316406 13.46875 2.921875 C 13.613281 2.523438 13.597656 2.09375 13.421875 1.625 C 13.273438 1.207031 13.046875 0.910156 12.734375 0.734375 C 12.421875 0.566406 12.066406 0.554688 11.671875 0.703125 C 11.222656 0.867188 10.953125 1.207031 10.859375 1.71875 C 10.765625 2.238281 10.738281 3 10.78125 4 C 10.800781 5 10.773438 5.828125 10.703125 6.484375 C 10.640625 7.140625 10.421875 7.765625 10.046875 8.359375 C 9.671875 8.960938 9.070312 9.414062 8.25 9.71875 C 7.46875 10.007812 6.679688 10.078125 5.890625 9.921875 C 5.097656 9.765625 4.375 9.367188 3.71875 8.734375 C 3.0625 8.109375 2.539062 7.28125 2.15625 6.25 Z M 2.15625 6.25 "/></g></g></g><g fill="#ffffff" fill-opacity="1"><g transform="translate(307.245802, 170.177253)"><g><path d="M 15.375 1.859375 L 0.96875 4.78125 L 0.265625 1.265625 L 14.671875 -1.65625 Z M 15.375 1.859375 "/></g></g></g><g fill="#ffffff" fill-opacity="1"><g transform="translate(309.96652, 185.40209)"><g><path d="M 0.53125 14.4375 L 0.40625 10.859375 L 9.25 4.546875 L 0.1875 4.875 L 0.046875 1.296875 L 14.734375 0.75 L 14.875 4.328125 L 6 10.65625 L 15.09375 10.3125 L 15.21875 13.890625 Z M 0.53125 14.4375 "/></g></g></g><g fill="#ffffff" fill-opacity="1"><g transform="translate(309.980556, 210.172975)"><g><path d="M 8.109375 12.5625 C 8.640625 12.363281 9.070312 12.039062 9.40625 11.59375 C 9.738281 11.15625 9.960938 10.609375 10.078125 9.953125 C 10.265625 8.804688 10.039062 7.820312 9.40625 7 C 8.769531 6.1875 7.828125 5.675781 6.578125 5.46875 C 5.234375 5.25 4.125 5.4375 3.25 6.03125 C 2.382812 6.632812 1.847656 7.570312 1.640625 8.84375 C 1.492188 9.71875 1.585938 10.488281 1.921875 11.15625 C 2.265625 11.820312 2.832031 12.363281 3.625 12.78125 L 4.359375 8.296875 L 6.96875 8.734375 L 5.703125 16.421875 L 2.421875 15.875 C 1.578125 15.457031 0.828125 14.875 0.171875 14.125 C -0.484375 13.375 -0.96875 12.476562 -1.28125 11.4375 C -1.59375 10.394531 -1.644531 9.269531 -1.4375 8.0625 C -1.207031 6.632812 -0.6875 5.410156 0.125 4.390625 C 0.9375 3.367188 1.953125 2.632812 3.171875 2.1875 C 4.398438 1.738281 5.734375 1.632812 7.171875 1.875 C 8.597656 2.113281 9.816406 2.640625 10.828125 3.453125 C 11.847656 4.265625 12.578125 5.28125 13.015625 6.5 C 13.460938 7.71875 13.566406 9.046875 13.328125 10.484375 C 13.035156 12.210938 12.375 13.601562 11.34375 14.65625 C 10.3125 15.707031 9.015625 16.304688 7.453125 16.453125 Z M 8.109375 12.5625 "/></g></g></g><g fill="#ffffff" fill-opacity="1"><g transform="translate(304.993224, 234.650595)"><g><path d="M 8.765625 18.34375 L -4.984375 13.125 L -3.703125 9.765625 L 1.953125 11.90625 L 3.921875 6.703125 L -1.734375 4.5625 L -0.453125 1.21875 L 13.296875 6.4375 L 12.015625 9.78125 L 6.625 7.734375 L 4.65625 12.9375 L 10.046875 14.984375 Z M 8.765625 18.34375 "/></g></g></g><g clip-path="url(#294a6ed835)"><g clip-path="url(#ce3a4a46d5)"><path stroke-linecap="butt" transform="matrix(0.75, 0, 0, 0.75, 69.377182, 77.847271)" fill="none" stroke-linejoin="miter" d="M 157.601268 0.000513816 C 70.559596 0.000513816 0.00229961 70.563018 0.00229961 157.599482 C 0.00229961 244.641155 70.559596 315.20366 157.601268 315.20366 C 244.642941 315.20366 315.205445 244.641155 315.205445 157.599482 C 315.205445 70.563018 244.642941 0.000513816 157.601268 0.000513816 Z M 157.601268 0.000513816 " stroke="#042d62" stroke-width="8" stroke-opacity="1" stroke-miterlimit="4"/></g></g><g clip-path="url(#256012acfc)"><g clip-path="url(#73dd737732)"><path fill="#ffffff" d="M 84.417969 93.679688 L 289.160156 93.679688 L 289.160156 298.421875 L 84.417969 298.421875 Z M 84.417969 93.679688 " fill-opacity="1" fill-rule="nonzero"/></g></g><path fill="#182c55" d="M 187.671875 254.078125 C 158.246094 254.078125 134.394531 230.222656 134.394531 200.796875 C 134.394531 171.371094 158.246094 147.515625 187.671875 147.515625 C 217.097656 147.515625 240.953125 171.371094 240.953125 200.796875 C 240.953125 230.222656 217.097656 254.078125 187.671875 254.078125 Z M 187.671875 134.429688 C 151.019531 134.429688 121.304688 164.144531 121.304688 200.796875 C 121.304688 237.449219 151.019531 267.164062 187.671875 267.164062 C 224.328125 267.164062 254.039062 237.449219 254.039062 200.796875 C 254.039062 164.144531 224.328125 134.429688 187.671875 134.429688 " fill-opacity="1" fill-rule="nonzero"/><path fill="#182c55" d="M 187.671875 251.273438 C 159.839844 251.273438 137.199219 228.628906 137.199219 200.796875 C 137.199219 172.964844 159.839844 150.320312 187.671875 150.320312 C 215.507812 150.320312 238.148438 172.964844 238.148438 200.796875 C 238.148438 228.628906 215.507812 251.273438 187.671875 251.273438 " fill-opacity="1" fill-rule="nonzero"/><path fill="#ee8124" d="M 197.757812 269.027344 C 197.757812 269.027344 197.21875 269.117188 196.40625 269.410156 C 195.59375 269.691406 194.5 270.164062 193.371094 270.890625 C 191.09375 272.375 188.652344 274.875 187.671875 279.675781 C 187.605469 280 187.683594 280.347656 187.882812 280.453125 C 189.347656 281.242188 190.871094 280.898438 192.164062 279.960938 C 193.464844 279.023438 194.566406 277.488281 195.40625 275.859375 C 196.25 274.238281 196.839844 272.519531 197.214844 271.214844 C 197.589844 269.914062 197.757812 269.027344 197.757812 269.027344 " fill-opacity="1" fill-rule="nonzero"/><g clip-path="url(#997e6e3d6b)"><path fill="#ee8124" d="M 200.554688 291.636719 C 200.554688 291.636719 199.820312 291.6875 198.6875 291.613281 C 197.554688 291.527344 196.015625 291.300781 194.425781 290.703125 C 191.257812 289.554688 187.894531 286.886719 187.484375 281.949219 C 187.457031 281.617188 187.628906 281.292969 187.835938 281.210938 C 189.402344 280.59375 190.816406 280.917969 192.214844 281.777344 C 193.601562 282.640625 194.949219 284.03125 196.171875 285.480469 C 197.390625 286.949219 198.484375 288.480469 199.273438 289.648438 C 200.066406 290.820312 200.554688 291.636719 200.554688 291.636719 " fill-opacity="1" fill-rule="nonzero"/></g><path fill="#ee8124" d="M 205.777344 267.535156 C 205.777344 267.535156 205.257812 267.703125 204.480469 268.089844 C 203.695312 268.4375 202.667969 269.078125 201.605469 269.921875 C 199.511719 271.691406 197.21875 274.496094 196.972656 279.425781 C 196.957031 279.757812 197.117188 280.082031 197.328125 280.152344 C 198.902344 280.703125 200.34375 280.164062 201.519531 279.085938 C 202.691406 277.960938 203.609375 276.34375 204.25 274.605469 C 205.550781 271.179688 205.777344 267.535156 205.777344 267.535156 " fill-opacity="1" fill-rule="nonzero"/><path fill="#ee8124" d="M 211.234375 289.652344 C 211.234375 289.652344 210.519531 289.804688 209.386719 289.863281 C 208.253906 289.882812 206.714844 289.878906 205.082031 289.460938 C 201.816406 288.707031 198.332031 286.476562 197.191406 281.695312 C 197.113281 281.375 197.207031 281.023438 197.402344 280.910156 C 198.847656 280.054688 200.3125 280.191406 201.800781 280.882812 C 203.273438 281.53125 204.785156 282.789062 206.164062 284.070312 C 208.925781 286.6875 211.234375 289.652344 211.234375 289.652344 " fill-opacity="1" fill-rule="nonzero"/><path fill="#ee8124" d="M 213.539062 265.109375 C 213.539062 265.109375 213.042969 265.335938 212.328125 265.820312 C 211.597656 266.265625 210.652344 266.992188 209.707031 267.984375 C 207.839844 269.953125 205.894531 273.058594 206.234375 277.957031 C 206.257812 278.285156 206.453125 278.589844 206.671875 278.640625 C 209.960938 279.332031 212.058594 275.890625 212.882812 272.308594 C 213.316406 270.527344 213.496094 268.753906 213.539062 267.378906 C 213.589844 266.015625 213.539062 265.109375 213.539062 265.109375 " fill-opacity="1" fill-rule="nonzero"/><path fill="#ee8124" d="M 221.628906 286.410156 C 221.628906 286.410156 220.933594 286.644531 219.816406 286.847656 C 218.6875 287.007812 217.144531 287.164062 215.480469 286.96875 C 212.132812 286.578125 208.425781 284.816406 206.722656 280.183594 C 206.605469 279.875 206.65625 279.519531 206.835938 279.382812 C 208.164062 278.339844 209.648438 278.351562 211.195312 278.824219 C 212.746094 279.324219 214.386719 280.367188 215.914062 281.476562 C 217.441406 282.601562 218.878906 283.867188 219.921875 284.792969 C 220.96875 285.738281 221.628906 286.410156 221.628906 286.410156 " fill-opacity="1" fill-rule="nonzero"/><path fill="#ee8124" d="M 220.890625 261.785156 C 220.890625 261.785156 220.4375 262.082031 219.777344 262.613281 C 219.109375 263.144531 218.292969 264.023438 217.46875 265.082031 C 216.65625 266.171875 215.902344 267.574219 215.417969 269.25 C 214.949219 270.945312 214.785156 273.007812 215.253906 275.40625 C 215.316406 275.730469 215.546875 276.011719 215.773438 276.035156 C 217.421875 276.164062 218.714844 275.347656 219.582031 273.988281 C 220.449219 272.613281 220.964844 270.851562 221.152344 268.996094 C 221.351562 267.164062 221.292969 265.367188 221.179688 264.027344 C 221.125 263.363281 221.046875 262.800781 220.988281 262.402344 C 220.925781 262.011719 220.890625 261.785156 220.890625 261.785156 " fill-opacity="1" fill-rule="nonzero"/><path fill="#ee8124" d="M 231.605469 281.890625 C 231.605469 281.890625 230.949219 282.226562 229.84375 282.535156 C 228.738281 282.839844 227.238281 283.238281 225.539062 283.210938 C 223.851562 283.21875 222.03125 282.941406 220.34375 282.042969 C 218.65625 281.167969 217.148438 279.761719 216.003906 277.558594 C 215.851562 277.265625 215.863281 276.90625 216.023438 276.75 C 217.214844 275.546875 218.6875 275.378906 220.285156 275.667969 C 221.871094 275.941406 223.652344 276.824219 225.300781 277.714844 C 226.957031 278.632812 228.53125 279.683594 229.699219 280.503906 C 230.273438 280.914062 230.753906 281.257812 231.089844 281.5 C 231.417969 281.746094 231.605469 281.890625 231.605469 281.890625 " fill-opacity="1" fill-rule="nonzero"/><path fill="#ee8124" d="M 227.699219 257.546875 C 227.699219 257.546875 227.277344 257.878906 226.714844 258.523438 C 226.171875 259.195312 225.390625 260.042969 224.757812 261.257812 C 223.472656 263.625 222.371094 267.097656 223.882812 271.761719 C 223.988281 272.074219 224.25 272.324219 224.472656 272.316406 C 226.164062 272.3125 227.285156 271.226562 228 269.820312 C 228.714844 268.394531 228.925781 266.46875 228.910156 264.667969 C 228.898438 262.867188 228.570312 261.046875 228.277344 259.730469 C 227.980469 258.40625 227.699219 257.546875 227.699219 257.546875 " fill-opacity="1" fill-rule="nonzero"/><path fill="#ee8124" d="M 240.945312 276.082031 C 240.945312 276.082031 240.324219 276.484375 239.285156 276.96875 C 238.269531 277.480469 236.746094 277.9375 235.089844 278.199219 C 231.730469 278.683594 227.679688 277.894531 224.898438 273.804688 C 224.710938 273.53125 224.671875 273.171875 224.8125 272.996094 C 225.878906 271.722656 227.257812 271.261719 228.910156 271.394531 C 230.550781 271.511719 232.363281 272.046875 234.152344 272.773438 C 235.9375 273.511719 237.609375 274.300781 238.871094 274.953125 C 240.128906 275.601562 240.945312 276.082031 240.945312 276.082031 " fill-opacity="1" fill-rule="nonzero"/><path fill="#ee8124" d="M 233.90625 252.476562 C 233.90625 252.476562 233.527344 252.855469 233.042969 253.554688 C 232.554688 254.253906 231.980469 255.300781 231.460938 256.53125 C 230.523438 259.074219 229.84375 262.589844 231.984375 267.070312 C 232.128906 267.367188 232.417969 267.578125 232.636719 267.539062 C 234.253906 267.230469 235.332031 266.15625 235.800781 264.589844 C 236.289062 263.042969 236.316406 261.195312 236.035156 259.375 C 235.464844 255.714844 233.90625 252.476562 233.90625 252.476562 " fill-opacity="1" fill-rule="nonzero"/><path fill="#ee8124" d="M 249.46875 269.117188 C 249.46875 269.117188 248.894531 269.589844 247.921875 270.195312 C 246.945312 270.792969 245.585938 271.550781 243.929688 271.96875 C 240.679688 272.921875 236.511719 272.605469 233.253906 268.960938 C 233.035156 268.71875 232.949219 268.363281 233.0625 268.167969 C 233.898438 266.683594 235.3125 266.195312 236.910156 266.035156 C 238.515625 265.894531 240.453125 266.273438 242.292969 266.726562 C 245.949219 267.628906 249.46875 269.117188 249.46875 269.117188 " fill-opacity="1" fill-rule="nonzero"/><path fill="#ee8124" d="M 239.4375 246.609375 C 239.4375 246.609375 239.101562 247.035156 238.703125 247.792969 C 238.289062 248.535156 237.859375 249.664062 237.511719 250.964844 C 237.164062 252.261719 236.992188 253.835938 237.21875 255.601562 C 237.414062 257.324219 238.023438 259.273438 239.375 261.332031 C 239.558594 261.605469 239.878906 261.777344 240.089844 261.714844 C 240.886719 261.476562 241.511719 261.042969 241.976562 260.480469 C 242.417969 259.890625 242.695312 259.171875 242.84375 258.382812 C 243.148438 256.804688 242.933594 254.964844 242.398438 253.175781 C 241.382812 249.625 239.4375 246.609375 239.4375 246.609375 " fill-opacity="1" fill-rule="nonzero"/><path fill="#ee8124" d="M 256.984375 261.144531 C 256.984375 261.144531 256.476562 261.679688 255.585938 262.390625 C 254.679688 263.09375 253.445312 264.019531 251.878906 264.660156 C 250.300781 265.289062 248.503906 265.726562 246.628906 265.574219 C 244.714844 265.386719 242.761719 264.636719 240.886719 263.042969 C 240.636719 262.828125 240.507812 262.488281 240.597656 262.28125 C 240.929688 261.511719 241.421875 260.949219 242.035156 260.542969 C 242.625 260.109375 243.332031 259.832031 244.132812 259.667969 C 245.730469 259.339844 247.695312 259.460938 249.554688 259.65625 C 253.308594 260.097656 256.984375 261.144531 256.984375 261.144531 " fill-opacity="1" fill-rule="nonzero"/><path fill="#ee8124" d="M 244.25 240.023438 C 244.25 240.023438 243.964844 240.488281 243.652344 241.296875 C 243.328125 242.09375 243.019531 243.273438 242.84375 244.625 C 242.648438 245.960938 242.65625 247.542969 243.109375 249.277344 C 243.542969 250.988281 244.363281 252.820312 245.976562 254.691406 C 246.191406 254.941406 246.53125 255.070312 246.734375 254.980469 C 248.296875 254.332031 248.945312 252.925781 249.046875 251.324219 C 249.097656 250.523438 249.015625 249.671875 248.832031 248.8125 C 248.644531 247.949219 248.320312 247.050781 247.964844 246.203125 C 246.53125 242.800781 244.25 240.023438 244.25 240.023438 " fill-opacity="1" fill-rule="nonzero"/><path fill="#ee8124" d="M 263.398438 252.371094 C 263.398438 252.371094 262.960938 252.957031 262.167969 253.765625 C 261.363281 254.5625 260.246094 255.609375 258.789062 256.4375 C 257.308594 257.253906 255.570312 257.890625 253.703125 257.976562 C 251.8125 258.050781 249.75 257.53125 247.691406 256.195312 C 247.414062 256.011719 247.246094 255.695312 247.308594 255.480469 C 247.8125 253.898438 248.9375 252.964844 250.484375 252.4375 C 251.257812 252.179688 252.132812 252.019531 253.058594 251.925781 C 253.976562 251.828125 254.90625 251.769531 255.855469 251.769531 C 259.632812 251.757812 263.398438 252.371094 263.398438 252.371094 " fill-opacity="1" fill-rule="nonzero"/><path fill="#ee8124" d="M 248.335938 232.808594 C 248.335938 232.808594 248.105469 233.316406 247.882812 234.167969 C 247.640625 235.007812 247.496094 236.257812 247.421875 237.605469 C 247.382812 238.972656 247.570312 240.558594 248.21875 242.234375 C 248.832031 243.878906 249.882812 245.609375 251.703125 247.273438 C 251.945312 247.496094 252.296875 247.582031 252.492188 247.46875 C 253.203125 247.039062 253.726562 246.484375 254.015625 245.8125 C 254.296875 245.132812 254.398438 244.367188 254.355469 243.5625 C 254.253906 241.945312 253.65625 240.226562 252.71875 238.59375 C 250.90625 235.351562 248.335938 232.808594 248.335938 232.808594 " fill-opacity="1" fill-rule="nonzero"/><path fill="#ee8124" d="M 268.695312 243.035156 C 268.695312 243.035156 268.335938 243.65625 267.648438 244.539062 C 266.941406 245.410156 266.003906 246.574219 264.605469 247.527344 C 263.246094 248.496094 261.605469 249.324219 259.769531 249.625 C 257.886719 249.902344 255.796875 249.640625 253.589844 248.558594 C 253.292969 248.410156 253.082031 248.117188 253.121094 247.894531 C 253.253906 247.0625 253.617188 246.414062 254.089844 245.855469 C 254.550781 245.292969 255.175781 244.855469 255.914062 244.503906 C 257.363281 243.796875 259.34375 243.476562 261.179688 243.242188 C 264.910156 242.8125 268.695312 243.035156 268.695312 243.035156 " fill-opacity="1" fill-rule="nonzero"/><path fill="#ee8124" d="M 251.726562 225.097656 C 251.726562 225.097656 251.554688 225.636719 251.425781 226.53125 C 251.324219 227.441406 251.148438 228.628906 251.265625 230.023438 C 251.355469 231.40625 251.78125 233.023438 252.527344 234.582031 C 253.300781 236.160156 254.550781 237.78125 256.542969 239.234375 C 256.808594 239.425781 257.167969 239.476562 257.34375 239.339844 C 260.074219 237.320312 258.699219 233.441406 256.65625 230.46875 C 255.652344 228.972656 254.359375 227.597656 253.402344 226.640625 C 252.429688 225.679688 251.726562 225.097656 251.726562 225.097656 " fill-opacity="1" fill-rule="nonzero"/><path fill="#ee8124" d="M 272.96875 233.335938 C 272.96875 233.335938 272.6875 233.984375 272.113281 234.917969 C 271.566406 235.859375 270.59375 237.050781 269.371094 238.144531 C 268.121094 239.230469 266.671875 240.242188 264.796875 240.695312 C 262.957031 241.164062 260.871094 241.136719 258.558594 240.300781 C 258.246094 240.191406 258.007812 239.917969 258.015625 239.695312 C 258.230469 236.398438 261.761719 235.03125 265.539062 234.246094 C 267.433594 233.871094 269.226562 233.625 270.636719 233.496094 C 272.03125 233.363281 272.96875 233.335938 272.96875 233.335938 " fill-opacity="1" fill-rule="nonzero"/><path fill="#ee8124" d="M 254.511719 217.007812 C 254.511719 217.007812 253.921875 219.210938 254.4375 222.015625 C 254.71875 223.433594 255.105469 224.933594 256.0625 226.460938 C 257.003906 227.972656 258.417969 229.476562 260.546875 230.726562 C 260.832031 230.894531 261.191406 230.90625 261.351562 230.753906 C 262.546875 229.605469 262.769531 228.097656 262.398438 226.546875 C 262.039062 224.996094 260.964844 223.359375 259.8125 221.941406 C 257.46875 219.085938 254.511719 217.007812 254.511719 217.007812 " fill-opacity="1" fill-rule="nonzero"/><g clip-path="url(#349640d6ad)"><path fill="#ee8124" d="M 276.371094 223.425781 C 276.371094 223.425781 275.390625 226.082031 273.203125 228.464844 C 272.140625 229.660156 270.601562 230.738281 268.859375 231.378906 C 267.097656 232.019531 265.035156 232.195312 262.65625 231.59375 C 262.335938 231.515625 262.070312 231.265625 262.054688 231.039062 C 261.945312 229.355469 262.777344 228.128906 264.113281 227.164062 C 265.453125 226.207031 267.164062 225.472656 268.992188 224.929688 C 272.605469 223.84375 276.371094 223.425781 276.371094 223.425781 " fill-opacity="1" fill-rule="nonzero"/></g><path fill="#ee8124" d="M 267.144531 209.191406 C 267.144531 209.191406 268.617188 211.609375 269.125 214.800781 C 269.402344 216.375 269.292969 218.253906 268.710938 220.015625 C 268.117188 221.792969 266.972656 223.515625 265.027344 225.011719 C 264.765625 225.210938 264.402344 225.265625 264.21875 225.136719 C 262.828125 224.175781 262.382812 222.761719 262.457031 221.117188 C 262.539062 219.472656 263.03125 217.671875 263.742188 215.90625 C 265.136719 212.398438 267.144531 209.191406 267.144531 209.191406 " fill-opacity="1" fill-rule="nonzero"/><path fill="#ee8124" d="M 177.398438 269.144531 C 177.398438 269.144531 177.933594 269.234375 178.746094 269.527344 C 179.558594 269.808594 180.652344 270.28125 181.785156 271.007812 C 184.0625 272.492188 186.503906 274.992188 187.480469 279.792969 C 187.550781 280.117188 187.46875 280.464844 187.269531 280.570312 C 185.804688 281.363281 184.285156 281.015625 182.992188 280.078125 C 181.6875 279.140625 180.589844 277.609375 179.746094 275.976562 C 178.902344 274.355469 178.3125 272.640625 177.9375 271.332031 C 177.566406 270.03125 177.398438 269.144531 177.398438 269.144531 " fill-opacity="1" fill-rule="nonzero"/><g clip-path="url(#fd666cf01a)"><path fill="#ee8124" d="M 174.601562 291.753906 C 174.601562 291.753906 175.332031 291.804688 176.464844 291.730469 C 177.601562 291.644531 179.136719 291.417969 180.726562 290.820312 C 183.894531 289.671875 187.257812 287.003906 187.671875 282.066406 C 187.695312 281.734375 187.523438 281.410156 187.316406 281.328125 C 185.753906 280.710938 184.335938 281.035156 182.941406 281.894531 C 181.554688 282.757812 180.207031 284.148438 178.984375 285.597656 C 177.761719 287.066406 176.671875 288.597656 175.878906 289.765625 C 175.085938 290.9375 174.601562 291.753906 174.601562 291.753906 " fill-opacity="1" fill-rule="nonzero"/></g><path fill="#ee8124" d="M 169.378906 267.652344 C 169.378906 267.652344 169.898438 267.820312 170.671875 268.207031 C 171.457031 268.554688 172.484375 269.195312 173.546875 270.039062 C 175.640625 271.808594 177.933594 274.613281 178.179688 279.542969 C 178.195312 279.875 178.039062 280.199219 177.828125 280.269531 C 176.25 280.820312 174.8125 280.285156 173.636719 279.203125 C 172.460938 278.078125 171.542969 276.464844 170.90625 274.722656 C 169.605469 271.296875 169.378906 267.652344 169.378906 267.652344 " fill-opacity="1" fill-rule="nonzero"/><path fill="#ee8124" d="M 163.921875 289.769531 C 163.921875 289.769531 164.636719 289.921875 165.765625 289.980469 C 166.902344 290.003906 168.441406 289.996094 170.070312 289.578125 C 173.335938 288.824219 176.824219 286.59375 177.960938 281.8125 C 178.039062 281.492188 177.945312 281.144531 177.75 281.027344 C 176.308594 280.171875 174.84375 280.308594 173.355469 281 C 171.878906 281.648438 170.371094 282.90625 168.992188 284.1875 C 166.226562 286.804688 163.921875 289.769531 163.921875 289.769531 " fill-opacity="1" fill-rule="nonzero"/><path fill="#ee8124" d="M 161.617188 265.230469 C 161.617188 265.230469 162.113281 265.453125 162.824219 265.9375 C 163.558594 266.382812 164.503906 267.109375 165.449219 268.101562 C 167.316406 270.070312 169.257812 273.175781 168.921875 278.074219 C 168.898438 278.402344 168.703125 278.707031 168.484375 278.757812 C 165.195312 279.449219 163.09375 276.007812 162.273438 272.429688 C 161.839844 270.644531 161.660156 268.871094 161.613281 267.496094 C 161.566406 266.132812 161.617188 265.230469 161.617188 265.230469 " fill-opacity="1" fill-rule="nonzero"/><path fill="#ee8124" d="M 153.523438 286.527344 C 153.523438 286.527344 154.21875 286.761719 155.335938 286.964844 C 156.464844 287.128906 158.007812 287.28125 159.671875 287.085938 C 163.023438 286.695312 166.726562 284.9375 168.433594 280.304688 C 168.550781 279.992188 168.496094 279.636719 168.316406 279.5 C 166.992188 278.457031 165.507812 278.46875 163.957031 278.941406 C 162.40625 279.441406 160.769531 280.484375 159.242188 281.59375 C 157.710938 282.71875 156.277344 283.984375 155.234375 284.910156 C 154.1875 285.855469 153.523438 286.527344 153.523438 286.527344 " fill-opacity="1" fill-rule="nonzero"/><path fill="#ee8124" d="M 154.265625 261.902344 C 154.265625 261.902344 154.714844 262.199219 155.378906 262.730469 C 156.042969 263.261719 156.859375 264.140625 157.6875 265.199219 C 158.496094 266.289062 159.253906 267.691406 159.734375 269.367188 C 160.207031 271.0625 160.371094 273.125 159.902344 275.523438 C 159.835938 275.847656 159.605469 276.128906 159.382812 276.152344 C 157.734375 276.285156 156.441406 275.464844 155.570312 274.105469 C 154.703125 272.730469 154.191406 270.96875 154.003906 269.113281 C 153.800781 267.28125 153.859375 265.484375 153.976562 264.144531 C 154.03125 263.480469 154.105469 262.917969 154.164062 262.519531 C 154.230469 262.128906 154.265625 261.902344 154.265625 261.902344 " fill-opacity="1" fill-rule="nonzero"/><path fill="#ee8124" d="M 143.550781 282.007812 C 143.550781 282.007812 144.207031 282.34375 145.3125 282.652344 C 146.417969 282.957031 147.917969 283.355469 149.613281 283.328125 C 151.300781 283.335938 153.121094 283.0625 154.8125 282.164062 C 156.5 281.285156 158.007812 279.882812 159.148438 277.675781 C 159.300781 277.382812 159.292969 277.023438 159.128906 276.867188 C 157.941406 275.664062 156.46875 275.496094 154.871094 275.785156 C 153.28125 276.058594 151.503906 276.941406 149.855469 277.832031 C 148.199219 278.75 146.621094 279.800781 145.453125 280.621094 C 144.878906 281.03125 144.398438 281.375 144.0625 281.617188 C 143.734375 281.863281 143.550781 282.007812 143.550781 282.007812 " fill-opacity="1" fill-rule="nonzero"/><path fill="#ee8124" d="M 147.457031 257.664062 C 147.457031 257.664062 147.878906 257.996094 148.4375 258.640625 C 148.984375 259.3125 149.761719 260.160156 150.398438 261.375 C 151.683594 263.742188 152.785156 267.214844 151.273438 271.878906 C 151.167969 272.191406 150.90625 272.441406 150.679688 272.433594 C 148.988281 272.429688 147.871094 271.34375 147.152344 269.9375 C 146.441406 268.511719 146.226562 266.585938 146.246094 264.785156 C 146.257812 262.984375 146.582031 261.164062 146.875 259.847656 C 147.175781 258.523438 147.457031 257.664062 147.457031 257.664062 " fill-opacity="1" fill-rule="nonzero"/><path fill="#ee8124" d="M 134.207031 276.199219 C 134.207031 276.199219 134.832031 276.601562 135.867188 277.085938 C 136.886719 277.597656 138.410156 278.054688 140.0625 278.316406 C 143.425781 278.800781 147.472656 278.011719 150.257812 273.921875 C 150.445312 273.648438 150.480469 273.289062 150.339844 273.113281 C 149.273438 271.839844 147.894531 271.378906 146.242188 271.511719 C 144.601562 271.628906 142.792969 272.164062 141.003906 272.894531 C 139.214844 273.628906 137.542969 274.417969 136.28125 275.070312 C 135.023438 275.71875 134.207031 276.199219 134.207031 276.199219 " fill-opacity="1" fill-rule="nonzero"/><path fill="#ee8124" d="M 141.246094 252.597656 C 141.246094 252.597656 141.628906 252.972656 142.113281 253.675781 C 142.601562 254.371094 143.171875 255.417969 143.691406 256.648438 C 144.632812 259.191406 145.308594 262.707031 143.171875 267.1875 C 143.027344 267.484375 142.734375 267.695312 142.515625 267.65625 C 140.898438 267.347656 139.824219 266.273438 139.351562 264.707031 C 138.867188 263.160156 138.839844 261.3125 139.121094 259.492188 C 139.6875 255.832031 141.246094 252.597656 141.246094 252.597656 " fill-opacity="1" fill-rule="nonzero"/><path fill="#ee8124" d="M 125.6875 269.234375 C 125.6875 269.234375 126.257812 269.707031 127.234375 270.3125 C 128.210938 270.914062 129.570312 271.667969 131.226562 272.085938 C 134.472656 273.039062 138.644531 272.722656 141.898438 269.078125 C 142.121094 268.835938 142.203125 268.480469 142.089844 268.285156 C 141.257812 266.800781 139.84375 266.3125 138.246094 266.152344 C 136.636719 266.011719 134.699219 266.390625 132.859375 266.84375 C 129.203125 267.746094 125.6875 269.234375 125.6875 269.234375 " fill-opacity="1" fill-rule="nonzero"/><path fill="#ee8124" d="M 135.71875 246.726562 C 135.71875 246.726562 136.050781 247.152344 136.453125 247.910156 C 136.867188 248.652344 137.296875 249.78125 137.640625 251.082031 C 137.992188 252.378906 138.160156 253.953125 137.933594 255.71875 C 137.742188 257.441406 137.132812 259.390625 135.777344 261.449219 C 135.59375 261.726562 135.277344 261.894531 135.0625 261.832031 C 134.265625 261.59375 133.644531 261.160156 133.175781 260.597656 C 132.738281 260.011719 132.460938 259.289062 132.308594 258.5 C 132.003906 256.921875 132.222656 255.082031 132.753906 253.292969 C 133.773438 249.742188 135.71875 246.726562 135.71875 246.726562 " fill-opacity="1" fill-rule="nonzero"/><path fill="#ee8124" d="M 118.171875 261.261719 C 118.171875 261.261719 118.675781 261.796875 119.566406 262.507812 C 120.472656 263.210938 121.707031 264.136719 123.277344 264.777344 C 124.855469 265.410156 126.652344 265.84375 128.527344 265.691406 C 130.441406 265.503906 132.394531 264.753906 134.265625 263.160156 C 134.519531 262.945312 134.648438 262.605469 134.558594 262.398438 C 134.222656 261.628906 133.734375 261.066406 133.117188 260.660156 C 132.53125 260.230469 131.820312 259.949219 131.023438 259.785156 C 129.425781 259.457031 127.460938 259.578125 125.601562 259.777344 C 121.847656 260.214844 118.171875 261.261719 118.171875 261.261719 " fill-opacity="1" fill-rule="nonzero"/><path fill="#ee8124" d="M 130.902344 240.140625 C 130.902344 240.140625 131.1875 240.605469 131.5 241.414062 C 131.824219 242.210938 132.136719 243.390625 132.308594 244.742188 C 132.503906 246.078125 132.496094 247.660156 132.046875 249.394531 C 131.609375 251.105469 130.789062 252.9375 129.175781 254.808594 C 128.960938 255.058594 128.625 255.1875 128.417969 255.097656 C 126.855469 254.449219 126.210938 253.042969 126.109375 251.441406 C 126.054688 250.640625 126.140625 249.789062 126.320312 248.929688 C 126.507812 248.066406 126.835938 247.167969 127.1875 246.320312 C 128.621094 242.917969 130.902344 240.140625 130.902344 240.140625 " fill-opacity="1" fill-rule="nonzero"/><path fill="#ee8124" d="M 111.757812 252.488281 C 111.757812 252.488281 112.195312 253.074219 112.988281 253.882812 C 113.789062 254.679688 114.90625 255.726562 116.367188 256.554688 C 117.847656 257.371094 119.582031 258.007812 121.453125 258.09375 C 123.339844 258.167969 125.402344 257.648438 127.460938 256.3125 C 127.738281 256.128906 127.910156 255.8125 127.84375 255.597656 C 127.34375 254.015625 126.21875 253.082031 124.671875 252.558594 C 123.894531 252.296875 123.023438 252.136719 122.097656 252.042969 C 121.175781 251.945312 120.25 251.886719 119.296875 251.886719 C 115.523438 251.875 111.757812 252.488281 111.757812 252.488281 " fill-opacity="1" fill-rule="nonzero"/><path fill="#ee8124" d="M 126.816406 232.925781 C 126.816406 232.925781 127.050781 233.433594 127.273438 234.285156 C 127.511719 235.125 127.660156 236.378906 127.730469 237.722656 C 127.773438 239.089844 127.582031 240.675781 126.933594 242.351562 C 126.320312 243.996094 125.273438 245.730469 123.449219 247.390625 C 123.207031 247.613281 122.855469 247.699219 122.664062 247.585938 C 121.949219 247.15625 121.425781 246.601562 121.136719 245.929688 C 120.855469 245.25 120.757812 244.484375 120.796875 243.679688 C 120.898438 242.0625 121.5 240.34375 122.4375 238.710938 C 124.25 235.46875 126.816406 232.925781 126.816406 232.925781 " fill-opacity="1" fill-rule="nonzero"/><path fill="#ee8124" d="M 106.460938 243.152344 C 106.460938 243.152344 106.820312 243.773438 107.503906 244.65625 C 108.210938 245.527344 109.148438 246.691406 110.546875 247.644531 C 111.910156 248.613281 113.546875 249.441406 115.386719 249.742188 C 117.265625 250.023438 119.359375 249.757812 121.566406 248.675781 C 121.863281 248.53125 122.070312 248.234375 122.035156 248.011719 C 121.902344 247.183594 121.539062 246.53125 121.066406 245.972656 C 120.601562 245.410156 119.976562 244.972656 119.242188 244.621094 C 117.789062 243.914062 115.8125 243.59375 113.976562 243.359375 C 110.242188 242.929688 106.460938 243.152344 106.460938 243.152344 " fill-opacity="1" fill-rule="nonzero"/><path fill="#ee8124" d="M 123.425781 225.214844 C 123.425781 225.214844 123.601562 225.753906 123.726562 226.648438 C 123.828125 227.558594 124.003906 228.746094 123.886719 230.144531 C 123.796875 231.523438 123.371094 233.140625 122.628906 234.703125 C 121.855469 236.277344 120.605469 237.898438 118.613281 239.351562 C 118.34375 239.546875 117.988281 239.59375 117.808594 239.457031 C 115.078125 237.4375 116.453125 233.558594 118.496094 230.585938 C 119.5 229.089844 120.792969 227.714844 121.75 226.757812 C 122.722656 225.796875 123.425781 225.214844 123.425781 225.214844 " fill-opacity="1" fill-rule="nonzero"/><path fill="#ee8124" d="M 102.183594 233.453125 C 102.183594 233.453125 102.46875 234.101562 103.042969 235.035156 C 103.585938 235.976562 104.558594 237.167969 105.78125 238.261719 C 107.03125 239.347656 108.480469 240.359375 110.355469 240.8125 C 112.199219 241.28125 114.28125 241.253906 116.597656 240.417969 C 116.90625 240.308594 117.148438 240.035156 117.136719 239.8125 C 116.925781 236.515625 113.394531 235.152344 109.613281 234.367188 C 107.71875 233.988281 105.925781 233.742188 104.515625 233.613281 C 103.121094 233.480469 102.183594 233.453125 102.183594 233.453125 " fill-opacity="1" fill-rule="nonzero"/><path fill="#ee8124" d="M 120.644531 217.125 C 120.644531 217.125 121.230469 219.328125 120.71875 222.132812 C 120.433594 223.550781 120.046875 225.050781 119.089844 226.578125 C 118.152344 228.089844 116.738281 229.597656 114.609375 230.84375 C 114.324219 231.011719 113.964844 231.023438 113.804688 230.871094 C 112.605469 229.722656 112.386719 228.214844 112.753906 226.664062 C 113.113281 225.113281 114.1875 223.476562 115.34375 222.058594 C 117.6875 219.203125 120.644531 217.125 120.644531 217.125 " fill-opacity="1" fill-rule="nonzero"/><g clip-path="url(#4c02b6c562)"><path fill="#ee8124" d="M 98.785156 223.542969 C 98.785156 223.542969 99.765625 226.199219 101.953125 228.582031 C 103.011719 229.777344 104.554688 230.855469 106.292969 231.496094 C 108.058594 232.136719 110.117188 232.3125 112.5 231.710938 C 112.816406 231.632812 113.085938 231.382812 113.101562 231.15625 C 113.207031 229.472656 112.375 228.246094 111.042969 227.28125 C 109.703125 226.324219 107.988281 225.589844 106.164062 225.046875 C 102.546875 223.960938 98.785156 223.542969 98.785156 223.542969 " fill-opacity="1" fill-rule="nonzero"/></g><path fill="#ee8124" d="M 108.007812 209.308594 C 108.007812 209.308594 106.535156 211.726562 106.027344 214.917969 C 105.75 216.492188 105.863281 218.371094 106.441406 220.132812 C 107.039062 221.914062 108.179688 223.632812 110.128906 225.128906 C 110.390625 225.328125 110.75 225.382812 110.9375 225.253906 C 112.324219 224.292969 112.769531 222.878906 112.695312 221.234375 C 112.613281 219.589844 112.125 217.789062 111.414062 216.023438 C 110.019531 212.515625 108.007812 209.308594 108.007812 209.308594 " fill-opacity="1" fill-rule="nonzero"/><g clip-path="url(#31490bb830)"><path fill="#ee8124" d="M 188.429688 122.867188 L 178.710938 130.226562 L 182.710938 118.710938 L 172.707031 111.746094 L 184.894531 111.992188 L 188.429688 100.328125 L 191.960938 111.992188 L 204.148438 111.746094 L 194.144531 118.710938 L 198.144531 130.226562 L 188.429688 122.867188 " fill-opacity="1" fill-rule="nonzero"/></g><path fill="#ee8124" d="M 219.074219 131.832031 L 213.582031 135.992188 L 215.84375 129.484375 L 210.1875 125.546875 L 217.078125 125.683594 L 219.074219 119.089844 L 221.074219 125.683594 L 227.964844 125.546875 L 222.308594 129.484375 L 224.570312 135.992188 L 219.074219 131.832031 " fill-opacity="1" fill-rule="nonzero"/><path fill="#ee8124" d="M 156.078125 131.832031 L 150.585938 135.992188 L 152.847656 129.484375 L 147.191406 125.546875 L 154.082031 125.683594 L 156.078125 119.089844 L 158.074219 125.683594 L 164.964844 125.546875 L 159.308594 129.484375 L 161.570312 135.992188 L 156.078125 131.832031 " fill-opacity="1" fill-rule="nonzero"/><path fill="#ffffff" d="M 187.960938 185.65625 C 187.960938 185.65625 204.199219 168.6875 218.914062 180.402344 C 218.914062 180.402344 217.390625 204.242188 218.914062 215.960938 C 218.914062 215.960938 200.140625 207.070312 187.960938 222.828125 L 187.960938 185.65625 " fill-opacity="1" fill-rule="nonzero"/><path fill="#ffffff" d="M 221.777344 218.164062 C 221.640625 217.871094 221.464844 217.605469 221.378906 217.253906 L 221.214844 216.753906 L 221.097656 216.230469 C 221.015625 215.882812 220.941406 215.53125 220.890625 215.171875 C 220.835938 214.8125 220.769531 214.460938 220.726562 214.097656 C 220.511719 212.664062 220.414062 211.207031 220.292969 209.757812 C 220.179688 208.300781 220.109375 206.84375 220.019531 205.382812 L 219.816406 201 C 219.644531 202.460938 219.546875 203.921875 219.457031 205.382812 C 219.417969 206.113281 219.371094 206.847656 219.355469 207.578125 C 219.332031 208.3125 219.320312 209.042969 219.316406 209.777344 C 219.308594 210.511719 219.328125 211.246094 219.351562 211.980469 C 219.378906 212.714844 219.417969 213.449219 219.476562 214.1875 C 219.496094 214.554688 219.550781 214.925781 219.597656 215.292969 C 219.636719 215.664062 219.699219 216.035156 219.773438 216.40625 L 219.878906 216.964844 L 219.972656 217.300781 C 219.753906 217.214844 219.53125 217.128906 219.308594 217.050781 C 218.566406 216.78125 217.804688 216.546875 217.039062 216.324219 C 216.273438 216.113281 215.496094 215.910156 214.710938 215.746094 C 213.925781 215.566406 213.125 215.429688 212.324219 215.316406 C 211.519531 215.199219 210.710938 215.109375 209.894531 215.054688 C 209.488281 215.019531 209.078125 215.003906 208.667969 214.992188 C 208.261719 214.972656 207.851562 214.964844 207.441406 214.972656 C 206.621094 214.96875 205.800781 215.023438 204.988281 215.097656 C 204.582031 215.144531 204.171875 215.175781 203.769531 215.238281 L 202.5625 215.433594 C 201.769531 215.601562 200.972656 215.761719 200.207031 216 C 199.816406 216.105469 199.4375 216.230469 199.066406 216.371094 C 198.699219 216.507812 198.3125 216.621094 197.957031 216.785156 L 196.878906 217.25 L 195.847656 217.777344 C 195.5 217.945312 195.183594 218.148438 194.863281 218.347656 C 194.542969 218.550781 194.207031 218.730469 193.910156 218.953125 C 193.308594 219.386719 192.6875 219.800781 192.15625 220.289062 C 191.589844 220.746094 191.085938 221.25 190.585938 221.75 C 190.070312 222.238281 189.652344 222.789062 189.183594 223.300781 C 188.746094 223.835938 188.371094 224.398438 187.960938 224.941406 L 189.410156 223.433594 C 189.933594 222.957031 190.402344 222.449219 190.964844 222.003906 C 191.507812 221.550781 192.054688 221.097656 192.65625 220.695312 C 193.226562 220.265625 193.847656 219.886719 194.460938 219.5 C 194.761719 219.304688 195.101562 219.148438 195.421875 218.96875 C 195.742188 218.796875 196.0625 218.621094 196.40625 218.476562 L 197.414062 218.015625 L 198.460938 217.613281 C 198.800781 217.46875 199.171875 217.378906 199.53125 217.257812 C 199.886719 217.140625 200.25 217.035156 200.621094 216.953125 C 201.351562 216.753906 202.101562 216.613281 202.851562 216.476562 L 203.988281 216.320312 C 204.367188 216.273438 204.753906 216.25 205.136719 216.214844 C 205.902344 216.160156 206.671875 216.132812 207.441406 216.140625 C 207.828125 216.132812 208.214844 216.144531 208.597656 216.164062 C 208.984375 216.179688 209.371094 216.195312 209.753906 216.234375 C 210.523438 216.292969 211.289062 216.382812 212.050781 216.496094 C 212.8125 216.609375 213.566406 216.75 214.316406 216.90625 C 215.070312 217.058594 215.808594 217.246094 216.546875 217.445312 C 217.277344 217.652344 218.003906 217.867188 218.714844 218.117188 C 219.417969 218.367188 220.144531 218.632812 220.785156 218.914062 L 222.464844 219.644531 L 221.777344 218.164062 " fill-opacity="1" fill-rule="nonzero"/><path fill="#ffffff" d="M 225.570312 221.960938 L 225.015625 221.027344 C 224.828125 220.71875 224.699219 220.382812 224.535156 220.058594 C 224.367188 219.738281 224.238281 219.40625 224.109375 219.070312 C 223.980469 218.734375 223.828125 218.40625 223.726562 218.0625 L 223.390625 217.039062 L 223.101562 216.003906 C 223 215.660156 222.929688 215.308594 222.847656 214.960938 C 222.765625 214.613281 222.675781 214.265625 222.609375 213.914062 C 222.464844 213.210938 222.335938 212.507812 222.226562 211.800781 C 222.113281 211.09375 221.996094 210.386719 221.914062 209.675781 C 221.738281 208.253906 221.613281 206.828125 221.53125 205.394531 C 221.378906 206.828125 221.359375 208.261719 221.382812 209.699219 C 221.386719 210.058594 221.390625 210.417969 221.410156 210.777344 C 221.429688 211.136719 221.433594 211.496094 221.460938 211.855469 C 221.515625 212.574219 221.589844 213.292969 221.679688 214.011719 C 221.71875 214.371094 221.78125 214.730469 221.835938 215.089844 C 221.890625 215.445312 221.949219 215.804688 222.03125 216.160156 L 222.265625 217.234375 L 222.550781 218.300781 C 222.636719 218.65625 222.777344 219.007812 222.890625 219.359375 C 223.003906 219.714844 223.132812 220.0625 223.296875 220.410156 C 223.378906 220.59375 223.457031 220.777344 223.539062 220.964844 C 223.367188 220.890625 223.199219 220.820312 223.023438 220.75 C 222.25 220.453125 221.464844 220.171875 220.671875 219.90625 C 219.085938 219.375 217.460938 218.914062 215.804688 218.542969 C 214.972656 218.359375 214.132812 218.195312 213.292969 218.050781 C 212.445312 217.914062 211.597656 217.789062 210.738281 217.699219 C 209.882812 217.609375 209.023438 217.527344 208.15625 217.503906 C 207.292969 217.460938 206.421875 217.46875 205.558594 217.488281 L 204.257812 217.546875 L 202.964844 217.664062 C 202.53125 217.695312 202.109375 217.785156 201.683594 217.84375 C 201.253906 217.898438 200.832031 217.976562 200.414062 218.070312 C 199.566406 218.226562 198.75 218.464844 197.929688 218.683594 C 197.132812 218.957031 196.328125 219.214844 195.574219 219.554688 C 194.796875 219.859375 194.089844 220.253906 193.363281 220.621094 C 192.6875 221.050781 191.976562 221.4375 191.367188 221.917969 C 191.054688 222.152344 190.726562 222.371094 190.429688 222.613281 L 189.554688 223.359375 C 189.253906 223.597656 188.996094 223.871094 188.738281 224.140625 L 187.960938 224.941406 C 188.566406 224.464844 189.125 223.960938 189.757812 223.519531 L 190.699219 222.847656 C 191.015625 222.628906 191.359375 222.4375 191.6875 222.230469 C 192.335938 221.804688 193.070312 221.476562 193.761719 221.109375 C 194.5 220.804688 195.203125 220.449219 195.972656 220.199219 C 196.71875 219.90625 197.511719 219.707031 198.28125 219.476562 C 199.078125 219.296875 199.863281 219.097656 200.675781 218.980469 C 201.078125 218.90625 201.484375 218.847656 201.894531 218.808594 C 202.304688 218.769531 202.707031 218.699219 203.121094 218.683594 L 204.351562 218.597656 L 205.589844 218.566406 C 206.417969 218.570312 207.242188 218.578125 208.066406 218.640625 C 208.890625 218.683594 209.710938 218.765625 210.53125 218.859375 C 211.351562 218.949219 212.164062 219.078125 212.976562 219.214844 C 213.785156 219.359375 214.589844 219.519531 215.390625 219.703125 C 216.1875 219.890625 216.984375 220.082031 217.769531 220.296875 C 218.554688 220.515625 219.335938 220.746094 220.105469 220.996094 C 220.878906 221.246094 221.640625 221.511719 222.390625 221.796875 C 223.140625 222.078125 223.898438 222.375 224.59375 222.6875 L 226.519531 223.554688 L 225.570312 221.960938 " fill-opacity="1" fill-rule="nonzero"/><path fill="#ffffff" d="M 187.191406 185.65625 C 187.191406 185.65625 170.957031 168.6875 156.242188 180.402344 C 156.242188 180.402344 157.765625 204.242188 156.242188 215.960938 C 156.242188 215.960938 175.015625 207.070312 187.191406 222.828125 L 187.191406 185.65625 " fill-opacity="1" fill-rule="nonzero"/><path fill="#ffffff" d="M 153.375 218.164062 C 153.511719 217.871094 153.6875 217.605469 153.777344 217.253906 L 153.9375 216.753906 L 154.054688 216.230469 C 154.140625 215.882812 154.210938 215.53125 154.261719 215.171875 C 154.316406 214.8125 154.386719 214.460938 154.429688 214.097656 C 154.644531 212.664062 154.742188 211.207031 154.863281 209.757812 C 154.976562 208.300781 155.042969 206.84375 155.136719 205.382812 L 155.335938 201 C 155.511719 202.460938 155.609375 203.921875 155.695312 205.382812 C 155.734375 206.113281 155.785156 206.847656 155.800781 207.578125 C 155.820312 208.3125 155.832031 209.042969 155.835938 209.777344 C 155.84375 210.511719 155.828125 211.246094 155.800781 211.980469 C 155.777344 212.714844 155.738281 213.449219 155.675781 214.1875 C 155.65625 214.554688 155.601562 214.925781 155.558594 215.292969 C 155.519531 215.664062 155.457031 216.035156 155.382812 216.40625 L 155.277344 216.964844 L 155.179688 217.300781 C 155.402344 217.214844 155.621094 217.128906 155.847656 217.050781 C 156.589844 216.78125 157.347656 216.546875 158.113281 216.324219 C 158.882812 216.113281 159.65625 215.910156 160.445312 215.746094 C 161.230469 215.566406 162.027344 215.429688 162.832031 215.316406 C 163.632812 215.199219 164.445312 215.109375 165.257812 215.054688 C 165.667969 215.019531 166.074219 215.003906 166.484375 214.992188 C 166.894531 214.972656 167.304688 214.964844 167.714844 214.972656 C 168.53125 214.96875 169.351562 215.023438 170.167969 215.097656 C 170.574219 215.144531 170.980469 215.175781 171.386719 215.238281 L 172.59375 215.433594 C 173.386719 215.601562 174.183594 215.761719 174.949219 216 C 175.335938 216.105469 175.714844 216.230469 176.085938 216.371094 C 176.457031 216.507812 176.84375 216.621094 177.195312 216.785156 L 178.273438 217.25 L 179.304688 217.777344 C 179.652344 217.945312 179.972656 218.148438 180.292969 218.347656 C 180.609375 218.550781 180.945312 218.730469 181.246094 218.953125 C 181.84375 219.386719 182.464844 219.800781 182.996094 220.289062 C 183.5625 220.746094 184.066406 221.25 184.566406 221.75 C 185.085938 222.238281 185.5 222.789062 185.96875 223.300781 C 186.40625 223.835938 186.785156 224.398438 187.191406 224.941406 L 185.746094 223.433594 C 185.222656 222.957031 184.753906 222.449219 184.191406 222.003906 C 183.644531 221.550781 183.101562 221.097656 182.5 220.695312 C 181.929688 220.265625 181.308594 219.886719 180.695312 219.5 C 180.390625 219.304688 180.050781 219.148438 179.734375 218.96875 C 179.410156 218.796875 179.09375 218.621094 178.75 218.476562 L 177.742188 218.015625 L 176.695312 217.613281 C 176.351562 217.46875 175.980469 217.378906 175.625 217.257812 C 175.265625 217.140625 174.90625 217.035156 174.535156 216.953125 C 173.804688 216.753906 173.054688 216.613281 172.304688 216.476562 L 171.167969 216.320312 C 170.785156 216.273438 170.402344 216.25 170.019531 216.214844 C 169.253906 216.160156 168.480469 216.132812 167.710938 216.140625 C 167.324219 216.132812 166.941406 216.144531 166.554688 216.164062 C 166.167969 216.179688 165.785156 216.195312 165.398438 216.234375 C 164.628906 216.292969 163.863281 216.382812 163.101562 216.496094 C 162.34375 216.609375 161.585938 216.75 160.835938 216.90625 C 160.085938 217.058594 159.34375 217.246094 158.609375 217.445312 C 157.878906 217.652344 157.148438 217.867188 156.4375 218.117188 C 155.734375 218.367188 155.011719 218.632812 154.367188 218.914062 L 152.691406 219.644531 L 153.375 218.164062 " fill-opacity="1" fill-rule="nonzero"/><path fill="#ffffff" d="M 149.582031 221.960938 L 150.136719 221.027344 C 150.328125 220.71875 150.457031 220.382812 150.621094 220.058594 C 150.785156 219.738281 150.914062 219.40625 151.042969 219.070312 C 151.171875 218.734375 151.328125 218.40625 151.425781 218.0625 L 151.765625 217.039062 L 152.050781 216.003906 C 152.152344 215.660156 152.222656 215.308594 152.308594 214.960938 C 152.386719 214.613281 152.480469 214.265625 152.542969 213.914062 C 152.691406 213.210938 152.816406 212.507812 152.925781 211.800781 C 153.042969 211.09375 153.15625 210.386719 153.242188 209.675781 C 153.417969 208.253906 153.539062 206.828125 153.625 205.394531 C 153.773438 206.828125 153.792969 208.261719 153.773438 209.699219 C 153.769531 210.058594 153.761719 210.417969 153.746094 210.777344 C 153.726562 211.136719 153.722656 211.496094 153.691406 211.855469 C 153.636719 212.574219 153.566406 213.292969 153.472656 214.011719 C 153.4375 214.371094 153.371094 214.730469 153.316406 215.089844 C 153.261719 215.445312 153.203125 215.804688 153.121094 216.160156 L 152.890625 217.234375 L 152.601562 218.300781 C 152.515625 218.65625 152.378906 219.007812 152.265625 219.359375 C 152.148438 219.714844 152.019531 220.0625 151.859375 220.410156 C 151.773438 220.59375 151.699219 220.777344 151.617188 220.964844 C 151.789062 220.890625 151.957031 220.820312 152.128906 220.75 C 152.90625 220.453125 153.6875 220.171875 154.480469 219.90625 C 156.066406 219.375 157.691406 218.914062 159.351562 218.542969 C 160.179688 218.359375 161.019531 218.195312 161.863281 218.050781 C 162.710938 217.914062 163.558594 217.789062 164.414062 217.699219 C 165.273438 217.609375 166.132812 217.527344 167 217.503906 C 167.863281 217.460938 168.730469 217.46875 169.597656 217.488281 L 170.894531 217.546875 L 172.1875 217.664062 C 172.621094 217.695312 173.042969 217.785156 173.472656 217.84375 C 173.902344 217.898438 174.324219 217.976562 174.742188 218.070312 C 175.585938 218.226562 176.40625 218.464844 177.222656 218.683594 C 178.023438 218.957031 178.828125 219.214844 179.578125 219.554688 C 180.355469 219.859375 181.066406 220.253906 181.792969 220.621094 C 182.464844 221.050781 183.175781 221.4375 183.789062 221.917969 C 184.101562 222.152344 184.429688 222.371094 184.726562 222.613281 L 185.597656 223.359375 C 185.898438 223.597656 186.15625 223.871094 186.414062 224.140625 L 187.191406 224.941406 C 186.585938 224.464844 186.027344 223.960938 185.394531 223.519531 L 184.457031 222.847656 C 184.140625 222.628906 183.792969 222.4375 183.464844 222.230469 C 182.820312 221.804688 182.082031 221.476562 181.394531 221.109375 C 180.652344 220.804688 179.953125 220.449219 179.179688 220.199219 C 178.4375 219.90625 177.644531 219.707031 176.871094 219.476562 C 176.078125 219.296875 175.289062 219.097656 174.476562 218.980469 C 174.074219 218.90625 173.671875 218.847656 173.257812 218.808594 C 172.851562 218.769531 172.445312 218.699219 172.03125 218.683594 L 170.800781 218.597656 L 169.5625 218.566406 C 168.738281 218.570312 167.910156 218.578125 167.089844 218.640625 C 166.261719 218.683594 165.441406 218.765625 164.621094 218.859375 C 163.804688 218.949219 162.988281 219.078125 162.175781 219.214844 C 161.367188 219.359375 160.5625 219.519531 159.765625 219.703125 C 158.96875 219.890625 158.171875 220.082031 157.382812 220.296875 C 156.597656 220.515625 155.816406 220.746094 155.046875 220.996094 C 154.277344 221.246094 153.515625 221.511719 152.761719 221.796875 C 152.015625 222.078125 151.253906 222.375 150.558594 222.6875 L 148.636719 223.554688 L 149.582031 221.960938 " fill-opacity="1" fill-rule="nonzero"/><g clip-path="url(#f33525e678)"><g clip-path="url(#4894e3a81e)"><path fill="#182c55" d="M 140.710938 149.179688 L 234.449219 149.179688 L 234.449219 242.921875 L 140.710938 242.921875 Z M 140.710938 149.179688 " fill-opacity="1" fill-rule="nonzero"/></g></g><path fill="#ffffff" d="M 158.089844 201.375 C 158.117188 201.871094 157.742188 202.296875 157.246094 202.324219 C 156.75 202.355469 156.324219 201.976562 156.296875 201.480469 C 156.28125 201.199219 156.265625 200.886719 156.253906 200.546875 C 156.242188 200.167969 156.238281 199.847656 156.238281 199.597656 C 156.238281 190.945312 159.746094 183.109375 165.417969 177.441406 C 171.085938 171.769531 178.921875 168.261719 187.574219 168.261719 C 196.226562 168.261719 204.0625 171.769531 209.734375 177.441406 C 215.40625 183.109375 218.914062 190.945312 218.914062 199.597656 C 218.914062 199.847656 218.90625 200.167969 218.894531 200.546875 C 218.882812 200.886719 218.871094 201.199219 218.851562 201.480469 C 218.824219 201.976562 218.398438 202.355469 217.902344 202.324219 C 217.410156 202.296875 217.03125 201.871094 217.058594 201.375 C 217.078125 201.054688 217.09375 200.757812 217.101562 200.488281 C 217.109375 200.257812 217.113281 199.964844 217.113281 199.597656 C 217.113281 191.441406 213.808594 184.058594 208.460938 178.710938 C 203.117188 173.367188 195.730469 170.0625 187.574219 170.0625 C 179.417969 170.0625 172.035156 173.367188 166.6875 178.710938 C 161.34375 184.058594 158.035156 191.441406 158.035156 199.597656 C 158.035156 199.964844 158.039062 200.257812 158.046875 200.488281 C 158.054688 200.757812 158.070312 201.054688 158.089844 201.375 Z M 158.089844 201.375 " fill-opacity="1" fill-rule="nonzero"/><path fill="#ffffff" d="M 187.574219 211.535156 C 185.832031 209.757812 175.324219 199.980469 160.027344 205.117188 L 160.027344 208.289062 C 160.027344 208.289062 157.835938 208.71875 156.628906 209.238281 L 156.628906 213.773438 C 156.628906 213.773438 171.917969 206.667969 187.574219 216.894531 C 203.234375 206.667969 218.523438 213.773438 218.523438 213.773438 L 218.523438 209.238281 C 217.316406 208.71875 215.121094 208.289062 215.121094 208.289062 L 215.121094 205.117188 C 199.824219 199.980469 189.320312 209.757812 187.574219 211.535156 Z M 187.574219 211.535156 " fill-opacity="1" fill-rule="evenodd"/><g clip-path="url(#6541a882e2)"><path fill="#ee8124" d="M 189.542969 226.746094 C 189.542969 226.746094 191.828125 213.253906 205.417969 214.347656 C 205.417969 214.347656 206.59375 216.816406 203.066406 218.03125 C 199.53125 219.25 199.316406 221.777344 199.316406 221.777344 C 199.316406 221.777344 202.964844 219.703125 206.09375 220.101562 C 213.847656 221.089844 218.085938 215.210938 222.671875 213.023438 C 223.183594 212.78125 223.746094 212.585938 224.136719 213.054688 C 225.164062 214.300781 212.253906 234.984375 189.542969 226.746094 Z M 185.605469 226.746094 C 185.605469 226.746094 183.324219 213.253906 169.734375 214.347656 C 169.734375 214.347656 168.554688 216.816406 172.085938 218.03125 C 175.617188 219.25 175.832031 221.777344 175.832031 221.777344 C 175.832031 221.777344 172.1875 219.703125 169.054688 220.101562 C 161.300781 221.089844 157.066406 215.210938 152.476562 213.023438 C 151.96875 212.78125 151.402344 212.585938 151.011719 213.054688 C 149.984375 214.300781 162.894531 234.984375 185.605469 226.746094 Z M 185.605469 226.746094 " fill-opacity="1" fill-rule="evenodd"/></g><path fill="#ee8124" d="M 187.574219 178.734375 C 192.789062 178.734375 197.507812 180.847656 200.921875 184.265625 C 204.339844 187.679688 206.453125 192.398438 206.453125 197.613281 C 206.453125 198.625 206.371094 199.621094 206.21875 200.589844 C 205.472656 200.59375 204.726562 200.625 203.980469 200.6875 C 204.070312 200.488281 204.152344 200.28125 204.222656 200.074219 C 203.558594 200.398438 202.761719 200.691406 201.847656 200.953125 C 200.816406 201.117188 199.792969 201.34375 198.777344 201.625 C 197.167969 201.902344 195.347656 202.121094 193.382812 202.269531 C 193.34375 202.777344 193.296875 203.277344 193.25 203.769531 C 192.601562 204.097656 191.953125 204.453125 191.316406 204.832031 C 191.414062 204.042969 191.5 203.222656 191.566406 202.378906 C 190.28125 202.445312 188.941406 202.476562 187.574219 202.476562 C 186.207031 202.476562 184.871094 202.445312 183.585938 202.378906 C 183.648438 203.222656 183.734375 204.042969 183.832031 204.832031 C 183.195312 204.453125 182.550781 204.097656 181.898438 203.769531 C 181.851562 203.277344 181.804688 202.777344 181.769531 202.269531 C 179.800781 202.121094 177.984375 201.902344 176.375 201.625 C 175.355469 201.34375 174.332031 201.117188 173.304688 200.953125 C 172.390625 200.691406 171.589844 200.398438 170.925781 200.074219 C 170.996094 200.28125 171.078125 200.488281 171.167969 200.6875 C 170.425781 200.625 169.679688 200.59375 168.929688 200.589844 C 168.777344 199.621094 168.695312 198.625 168.695312 197.613281 C 168.695312 192.398438 170.8125 187.679688 174.226562 184.265625 C 177.644531 180.847656 182.363281 178.734375 187.574219 178.734375 Z M 181.597656 197.613281 C 181.597656 196.648438 181.621094 195.699219 181.660156 194.769531 C 179.308594 194.953125 177.191406 195.242188 175.425781 195.609375 C 175.371094 196.265625 175.339844 196.933594 175.339844 197.613281 C 175.339844 198.289062 175.371094 198.960938 175.425781 199.617188 C 177.191406 199.984375 179.308594 200.273438 181.660156 200.453125 C 181.621094 199.527344 181.597656 198.578125 181.597656 197.613281 Z M 181.769531 192.957031 C 181.929688 190.777344 182.207031 188.753906 182.566406 186.964844 C 180.558594 187.367188 178.707031 188.007812 177.082031 188.835938 C 176.4375 190.335938 175.953125 191.980469 175.660156 193.730469 C 177.4375 193.390625 179.507812 193.128906 181.769531 192.957031 Z M 183.011719 185.050781 L 183.121094 184.660156 C 183.523438 183.234375 184.007812 182.019531 184.558594 181.066406 C 182.433594 181.820312 180.53125 183.355469 179.011719 185.433594 C 178.8125 185.707031 178.621094 185.988281 178.433594 186.28125 C 179.859375 185.742188 181.394531 185.324219 183.011719 185.050781 Z M 190.59375 181.066406 C 191.144531 182.019531 191.625 183.234375 192.03125 184.660156 L 192.136719 185.050781 C 193.753906 185.324219 195.289062 185.742188 196.714844 186.28125 C 196.527344 185.988281 196.335938 185.707031 196.136719 185.433594 C 194.621094 183.355469 192.714844 181.820312 190.59375 181.066406 Z M 192.582031 186.964844 C 192.945312 188.753906 193.21875 190.777344 193.382812 192.957031 C 195.644531 193.128906 197.710938 193.390625 199.488281 193.730469 C 199.195312 191.980469 198.710938 190.335938 198.066406 188.835938 C 196.445312 188.007812 194.59375 187.367188 192.582031 186.964844 Z M 193.488281 194.769531 C 193.53125 195.699219 193.550781 196.648438 193.550781 197.613281 C 193.550781 198.578125 193.53125 199.527344 193.488281 200.453125 C 195.839844 200.273438 197.957031 199.984375 199.722656 199.617188 C 199.777344 198.960938 199.808594 198.289062 199.808594 197.613281 C 199.808594 196.933594 199.777344 196.265625 199.722656 195.609375 C 197.957031 195.242188 195.839844 194.953125 193.488281 194.769531 Z M 184.472656 186.660156 C 184.066406 188.460938 183.765625 190.558594 183.585938 192.84375 C 184.871094 192.78125 186.207031 192.746094 187.574219 192.746094 C 188.941406 192.746094 190.28125 192.78125 191.566406 192.84375 C 191.386719 190.558594 191.082031 188.460938 190.675781 186.660156 C 189.671875 186.539062 188.632812 186.476562 187.574219 186.476562 C 186.515625 186.476562 185.476562 186.539062 184.472656 186.660156 Z M 183.472656 194.65625 C 183.425781 195.617188 183.402344 196.605469 183.402344 197.613281 C 183.402344 198.621094 183.425781 199.609375 183.472656 200.570312 C 184.785156 200.640625 186.160156 200.675781 187.574219 200.675781 C 188.988281 200.675781 190.363281 200.640625 191.679688 200.570312 C 191.722656 199.609375 191.746094 198.621094 191.746094 197.613281 C 191.746094 196.605469 191.722656 195.617188 191.679688 194.65625 C 190.363281 194.585938 188.988281 194.550781 187.574219 194.550781 C 186.160156 194.550781 184.785156 194.585938 183.472656 194.65625 Z M 190.195312 184.792969 C 189.410156 182.15625 188.484375 180.539062 187.574219 180.539062 C 186.667969 180.539062 185.738281 182.15625 184.957031 184.792969 C 185.8125 184.710938 186.683594 184.671875 187.574219 184.671875 C 188.464844 184.671875 189.339844 184.710938 190.195312 184.792969 Z M 173.539062 197.613281 C 173.539062 197.085938 173.554688 196.5625 173.585938 196.042969 C 171.648438 196.566406 170.5 197.113281 170.5 197.613281 C 170.5 198.109375 171.648438 198.660156 173.585938 199.179688 C 173.554688 198.664062 173.539062 198.140625 173.539062 197.613281 Z M 173.773438 194.144531 C 173.953125 192.84375 174.234375 191.585938 174.597656 190.394531 C 172.832031 191.742188 171.550781 193.367188 170.925781 195.148438 C 171.703125 194.769531 172.660156 194.4375 173.773438 194.144531 Z M 175.695312 187.539062 C 176.234375 186.394531 176.859375 185.332031 177.5625 184.371094 C 177.890625 183.917969 178.238281 183.488281 178.601562 183.082031 C 177.472656 183.78125 176.433594 184.605469 175.5 185.539062 C 174.203125 186.835938 173.117188 188.339844 172.289062 190 C 172.914062 189.410156 173.605469 188.859375 174.363281 188.351562 C 174.789062 188.066406 175.234375 187.796875 175.695312 187.539062 Z M 196.546875 183.082031 C 196.910156 183.488281 197.257812 183.917969 197.585938 184.371094 C 198.289062 185.332031 198.917969 186.394531 199.453125 187.539062 C 199.917969 187.796875 200.359375 188.066406 200.785156 188.351562 C 201.542969 188.859375 202.238281 189.410156 202.863281 190 C 202.035156 188.339844 200.945312 186.835938 199.648438 185.539062 C 198.714844 184.605469 197.675781 183.78125 196.546875 183.082031 Z M 200.550781 190.394531 C 200.917969 191.585938 201.195312 192.84375 201.375 194.144531 C 202.488281 194.4375 203.449219 194.769531 204.222656 195.148438 C 203.601562 193.367188 202.316406 191.742188 200.550781 190.394531 Z M 201.5625 196.042969 C 201.59375 196.5625 201.609375 197.085938 201.609375 197.613281 C 201.609375 198.140625 201.59375 198.664062 201.5625 199.179688 C 203.5 198.660156 204.648438 198.109375 204.648438 197.613281 C 204.648438 197.113281 203.5 196.566406 201.5625 196.042969 Z M 201.5625 196.042969 " fill-opacity="1" fill-rule="nonzero"/><path fill="#ffffff" d="M 188.117188 176.523438 C 188.117188 176.824219 187.875 177.066406 187.574219 177.066406 C 187.277344 177.066406 187.03125 176.824219 187.03125 176.523438 L 187.03125 173.308594 C 187.03125 173.011719 187.277344 172.769531 187.574219 172.769531 C 187.875 172.769531 188.117188 173.011719 188.117188 173.308594 Z M 208.613281 198.558594 C 208.3125 198.5625 208.070312 198.316406 208.070312 198.019531 C 208.070312 197.71875 208.3125 197.476562 208.613281 197.476562 L 211.824219 197.476562 C 212.125 197.476562 212.367188 197.71875 212.367188 198.019531 C 212.367188 198.316406 212.125 198.558594 211.824219 198.558594 Z M 208.085938 193.03125 C 207.796875 193.109375 207.5 192.933594 207.421875 192.648438 C 207.347656 192.355469 207.515625 192.058594 207.804688 191.984375 L 210.910156 191.152344 C 211.199219 191.074219 211.496094 191.246094 211.574219 191.535156 C 211.648438 191.824219 211.480469 192.121094 211.191406 192.199219 Z M 206.148438 187.824219 C 205.890625 187.972656 205.558594 187.882812 205.40625 187.625 C 205.257812 187.367188 205.347656 187.035156 205.605469 186.886719 L 208.390625 185.277344 C 208.648438 185.128906 208.980469 185.21875 209.128906 185.476562 C 209.277344 185.738281 209.191406 186.066406 208.929688 186.21875 Z M 202.925781 183.296875 C 202.714844 183.507812 202.371094 183.507812 202.160156 183.296875 C 201.949219 183.085938 201.945312 182.742188 202.160156 182.527344 L 204.429688 180.257812 C 204.640625 180.046875 204.984375 180.046875 205.195312 180.257812 C 205.40625 180.46875 205.40625 180.8125 205.195312 181.023438 Z M 198.644531 179.757812 C 198.496094 180.015625 198.164062 180.105469 197.90625 179.957031 C 197.644531 179.804688 197.554688 179.476562 197.707031 179.214844 L 199.3125 176.433594 C 199.460938 176.175781 199.792969 176.085938 200.050781 176.234375 C 200.3125 176.386719 200.402344 176.714844 200.25 176.976562 Z M 193.59375 177.449219 C 193.515625 177.738281 193.21875 177.910156 192.929688 177.832031 C 192.640625 177.753906 192.46875 177.457031 192.546875 177.167969 L 193.378906 174.0625 C 193.457031 173.773438 193.753906 173.601562 194.042969 173.679688 C 194.332031 173.757812 194.503906 174.054688 194.425781 174.34375 Z M 166.078125 197.019531 C 166.378906 197.019531 166.621094 197.261719 166.621094 197.558594 C 166.621094 197.859375 166.378906 198.101562 166.078125 198.101562 L 162.867188 198.101562 C 162.566406 198.101562 162.324219 197.859375 162.324219 197.558594 C 162.324219 197.261719 162.566406 197.019531 162.867188 197.019531 Z M 167.003906 191.539062 C 167.292969 191.617188 167.464844 191.914062 167.386719 192.203125 C 167.308594 192.492188 167.011719 192.664062 166.722656 192.589844 L 163.621094 191.757812 C 163.332031 191.679688 163.160156 191.382812 163.238281 191.089844 C 163.3125 190.804688 163.609375 190.632812 163.902344 190.707031 Z M 169.3125 186.488281 C 169.574219 186.636719 169.660156 186.96875 169.511719 187.226562 C 169.363281 187.488281 169.03125 187.578125 168.773438 187.425781 L 165.988281 185.820312 C 165.730469 185.671875 165.640625 185.339844 165.792969 185.082031 C 165.941406 184.820312 166.273438 184.734375 166.53125 184.882812 Z M 172.855469 182.207031 C 173.070312 182.417969 173.070312 182.761719 172.855469 182.972656 C 172.644531 183.183594 172.300781 183.183594 172.089844 182.972656 L 169.820312 180.699219 C 169.605469 180.488281 169.605469 180.144531 169.820312 179.933594 C 170.03125 179.722656 170.375 179.722656 170.585938 179.933594 Z M 177.382812 178.988281 C 177.53125 179.246094 177.445312 179.578125 177.183594 179.726562 C 176.925781 179.875 176.59375 179.789062 176.445312 179.527344 L 174.835938 176.746094 C 174.6875 176.488281 174.777344 176.15625 175.035156 176.003906 C 175.292969 175.855469 175.625 175.945312 175.777344 176.203125 Z M 182.589844 177.046875 C 182.664062 177.335938 182.492188 177.636719 182.203125 177.710938 C 181.914062 177.789062 181.617188 177.617188 181.539062 177.328125 L 180.707031 174.226562 C 180.632812 173.9375 180.804688 173.640625 181.09375 173.5625 C 181.382812 173.484375 181.679688 173.65625 181.757812 173.945312 Z M 182.589844 177.046875 " fill-opacity="1" fill-rule="nonzero"/><g clip-path="url(#42fda624fd)"><path fill="#ffffff" d="M 154.378906 201.859375 C 154.414062 202.425781 153.988281 202.910156 153.429688 202.941406 C 152.875 202.972656 152.394531 202.542969 152.363281 201.980469 C 152.34375 201.65625 152.328125 201.304688 152.316406 200.914062 C 152.300781 200.484375 152.292969 200.121094 152.292969 199.835938 C 152.292969 189.984375 156.246094 181.066406 162.628906 174.609375 C 169.011719 168.152344 177.832031 164.160156 187.574219 164.160156 C 197.316406 164.160156 206.136719 168.152344 212.523438 174.609375 C 218.90625 181.066406 222.855469 189.984375 222.855469 199.835938 C 222.855469 200.121094 222.847656 200.484375 222.835938 200.914062 C 222.824219 201.304688 222.804688 201.65625 222.785156 201.980469 C 222.753906 202.542969 222.273438 202.972656 221.71875 202.941406 C 221.160156 202.910156 220.738281 202.425781 220.769531 201.859375 C 220.789062 201.496094 220.808594 201.15625 220.816406 200.851562 C 220.824219 200.589844 220.828125 200.253906 220.828125 199.835938 C 220.828125 190.550781 217.105469 182.144531 211.089844 176.058594 C 205.070312 169.972656 196.757812 166.207031 187.574219 166.207031 C 178.390625 166.207031 170.078125 169.972656 164.058594 176.058594 C 158.042969 182.144531 154.320312 190.550781 154.320312 199.835938 C 154.320312 200.253906 154.324219 200.589844 154.332031 200.851562 C 154.34375 201.15625 154.359375 201.496094 154.378906 201.859375 Z M 154.378906 201.859375 " fill-opacity="1" fill-rule="nonzero"/></g><g fill="#e8eef1" fill-opacity="1"><g transform="translate(65.095216, 264.30867)"><g><path d="M 6.6875 5.65625 L 3.921875 1.265625 L 1.171875 1.859375 L 0.296875 0.46875 L 12.59375 -2.203125 L 13.546875 -0.6875 L 5.84375 9.25 L 4.96875 7.859375 Z M 7.515625 4.609375 L 11.4375 -0.421875 L 5.21875 0.953125 Z M 7.515625 4.609375 "/></g></g></g><g fill="#e8eef1" fill-opacity="1"><g transform="translate(72.558303, 275.938799)"><g><path d="M 6.5625 8.390625 L 5.609375 7.171875 L 9.21875 -3.578125 L 1.765625 2.25 L 0.8125 1.03125 L 10.1875 -6.296875 L 11.140625 -5.078125 L 7.546875 5.65625 L 14.984375 -0.15625 L 15.9375 1.0625 Z M 6.5625 8.390625 "/></g></g></g><g fill="#e8eef1" fill-opacity="1"><g transform="translate(81.450067, 286.950722)"><g><path d="M 10.734375 -5.859375 L 1.921875 2.125 L 0.875 0.96875 L 9.6875 -7.015625 Z M 10.734375 -5.859375 "/></g></g></g><g fill="#e8eef1" fill-opacity="1"><g transform="translate(85.67349, 291.796664)"><g><path d="M 17.84375 0.484375 L 9.78125 9.125 L 8.640625 8.0625 L 14.640625 1.625 L 5.78125 5.390625 L 4.984375 4.640625 L 8.109375 -4.5 L 2.09375 1.953125 L 0.953125 0.890625 L 9.015625 -7.75 L 10.25 -6.609375 L 6.765625 3.515625 L 16.625 -0.640625 Z M 17.84375 0.484375 "/></g></g></g><g fill="#e8eef1" fill-opacity="1"><g transform="translate(98.297338, 303.274466)"><g><path d="M 8.265625 2.859375 L 4.109375 -0.234375 L 1.765625 1.3125 L 0.453125 0.34375 L 10.953125 -6.578125 L 12.40625 -5.5 L 8.765625 6.53125 L 7.453125 5.546875 Z M 8.671875 1.59375 L 10.53125 -4.5 L 5.203125 -0.984375 Z M 8.671875 1.59375 "/></g></g></g><g fill="#e8eef1" fill-opacity="1"><g transform="translate(109.401503, 311.328587)"><g><path d="M 3.09375 0.4375 L 6.640625 2.640625 L 5.96875 3.71875 L 1.109375 0.6875 L 7.390625 -9.40625 L 8.703125 -8.578125 Z M 3.09375 0.4375 "/></g></g></g><g fill="#e8eef1" fill-opacity="1"><g transform="translate(117.47059, 316.236807)"><g/></g></g><g fill="#e8eef1" fill-opacity="1"><g transform="translate(123.349497, 319.507196)"><g><path d="M 14.4375 -6.5 L 9.53125 4.328125 L 8.125 3.6875 L 10.359375 -1.21875 L 4.84375 -3.71875 L 2.609375 1.1875 L 1.1875 0.546875 L 6.09375 -10.28125 L 7.515625 -9.640625 L 5.359375 -4.890625 L 10.875 -2.390625 L 13.03125 -7.140625 Z M 14.4375 -6.5 "/></g></g></g><g fill="#e8eef1" fill-opacity="1"><g transform="translate(136.259198, 325.229012)"><g><path d="M 6.484375 -10.359375 L 4.078125 -3.234375 C 3.734375 -2.234375 3.726562 -1.40625 4.0625 -0.75 C 4.394531 -0.101562 5 0.363281 5.875 0.65625 C 6.726562 0.945312 7.484375 0.929688 8.140625 0.609375 C 8.796875 0.296875 9.296875 -0.359375 9.640625 -1.359375 L 12.046875 -8.484375 L 13.5 -7.984375 L 11.09375 -0.875 C 10.78125 0.0625 10.328125 0.785156 9.734375 1.296875 C 9.140625 1.804688 8.46875 2.113281 7.71875 2.21875 C 6.96875 2.320312 6.195312 2.238281 5.40625 1.96875 C 4.601562 1.695312 3.9375 1.289062 3.40625 0.75 C 2.875 0.21875 2.53125 -0.425781 2.375 -1.1875 C 2.226562 -1.957031 2.3125 -2.8125 2.625 -3.75 L 5.03125 -10.859375 Z M 6.484375 -10.359375 "/></g></g></g><g fill="#e8eef1" fill-opacity="1"><g transform="translate(149.368527, 329.512998)"><g><path d="M 4.90625 1.296875 C 4.144531 1.117188 3.492188 0.816406 2.953125 0.390625 C 2.421875 -0.0234375 2.039062 -0.507812 1.8125 -1.0625 C 1.582031 -1.625 1.535156 -2.226562 1.671875 -2.875 L 3.28125 -2.484375 C 3.21875 -1.929688 3.335938 -1.421875 3.640625 -0.953125 C 3.941406 -0.484375 4.46875 -0.160156 5.21875 0.015625 C 5.9375 0.179688 6.546875 0.132812 7.046875 -0.125 C 7.546875 -0.382812 7.863281 -0.800781 8 -1.375 C 8.101562 -1.8125 8.0625 -2.195312 7.875 -2.53125 C 7.695312 -2.863281 7.441406 -3.144531 7.109375 -3.375 C 6.785156 -3.601562 6.335938 -3.875 5.765625 -4.1875 C 5.046875 -4.570312 4.476562 -4.914062 4.0625 -5.21875 C 3.644531 -5.53125 3.328125 -5.9375 3.109375 -6.4375 C 2.890625 -6.945312 2.863281 -7.5625 3.03125 -8.28125 C 3.1875 -8.90625 3.476562 -9.425781 3.90625 -9.84375 C 4.34375 -10.257812 4.882812 -10.523438 5.53125 -10.640625 C 6.175781 -10.765625 6.875 -10.738281 7.625 -10.5625 C 8.707031 -10.3125 9.53125 -9.832031 10.09375 -9.125 C 10.65625 -8.414062 10.878906 -7.597656 10.765625 -6.671875 L 9.109375 -7.0625 C 9.148438 -7.53125 9.003906 -7.976562 8.671875 -8.40625 C 8.347656 -8.84375 7.847656 -9.144531 7.171875 -9.3125 C 6.535156 -9.457031 5.976562 -9.410156 5.5 -9.171875 C 5.019531 -8.941406 4.710938 -8.535156 4.578125 -7.953125 C 4.484375 -7.535156 4.519531 -7.164062 4.6875 -6.84375 C 4.863281 -6.519531 5.109375 -6.242188 5.421875 -6.015625 C 5.742188 -5.796875 6.203125 -5.53125 6.796875 -5.21875 C 7.515625 -4.820312 8.078125 -4.46875 8.484375 -4.15625 C 8.898438 -3.84375 9.222656 -3.429688 9.453125 -2.921875 C 9.691406 -2.410156 9.722656 -1.785156 9.546875 -1.046875 C 9.410156 -0.492188 9.132812 -0.0078125 8.71875 0.40625 C 8.300781 0.832031 7.757812 1.132812 7.09375 1.3125 C 6.4375 1.488281 5.707031 1.484375 4.90625 1.296875 Z M 4.90625 1.296875 "/></g></g></g><g fill="#e8eef1" fill-opacity="1"><g transform="translate(161.327058, 332.257282)"><g><path d="M 8.0625 -5.015625 C 8.488281 -4.878906 8.851562 -4.648438 9.15625 -4.328125 C 9.46875 -4.003906 9.703125 -3.613281 9.859375 -3.15625 C 10.015625 -2.707031 10.054688 -2.25 9.984375 -1.78125 C 9.898438 -1.175781 9.671875 -0.65625 9.296875 -0.21875 C 8.921875 0.207031 8.421875 0.515625 7.796875 0.703125 C 7.171875 0.898438 6.46875 0.941406 5.6875 0.828125 L 1.296875 0.1875 L 3 -11.578125 L 7.21875 -10.96875 C 8.03125 -10.851562 8.695312 -10.625 9.21875 -10.28125 C 9.738281 -9.9375 10.101562 -9.515625 10.3125 -9.015625 C 10.53125 -8.523438 10.597656 -8 10.515625 -7.4375 C 10.421875 -6.738281 10.148438 -6.191406 9.703125 -5.796875 C 9.265625 -5.398438 8.71875 -5.140625 8.0625 -5.015625 Z M 3.796875 -6.28125 L 6.390625 -5.90625 C 7.109375 -5.800781 7.6875 -5.890625 8.125 -6.171875 C 8.570312 -6.453125 8.84375 -6.890625 8.9375 -7.484375 C 9.019531 -8.085938 8.882812 -8.582031 8.53125 -8.96875 C 8.1875 -9.363281 7.640625 -9.613281 6.890625 -9.71875 L 4.34375 -10.09375 Z M 5.734375 -0.46875 C 6.515625 -0.351562 7.144531 -0.441406 7.625 -0.734375 C 8.101562 -1.035156 8.390625 -1.507812 8.484375 -2.15625 C 8.578125 -2.800781 8.421875 -3.347656 8.015625 -3.796875 C 7.617188 -4.242188 7.039062 -4.519531 6.28125 -4.625 L 3.609375 -5.015625 L 3.015625 -0.859375 Z M 5.734375 -0.46875 "/></g></g></g><g fill="#e8eef1" fill-opacity="1"><g transform="translate(173.952316, 334.000945)"><g><path d="M 8.453125 -2.234375 L 3.28125 -2.484375 L 2.203125 0.109375 L 0.5625 0.03125 L 5.4375 -11.578125 L 7.21875 -11.484375 L 10.921875 0.53125 L 9.28125 0.453125 Z M 8.078125 -3.515625 L 6.234375 -9.609375 L 3.78125 -3.734375 Z M 8.078125 -3.515625 "/></g></g></g><g fill="#e8eef1" fill-opacity="1"><g transform="translate(187.758516, 334.575431)"><g><path d="M 10.640625 -0.546875 L 9.09375 -0.46875 L 2.375 -9.59375 L 2.859375 -0.140625 L 1.3125 -0.0625 L 0.703125 -11.953125 L 2.25 -12.03125 L 8.96875 -2.921875 L 8.484375 -12.359375 L 10.03125 -12.4375 Z M 10.640625 -0.546875 "/></g></g></g><g fill="#e8eef1" fill-opacity="1"><g transform="translate(202.057693, 333.723631)"><g><path d="M 3.125 -12.515625 C 4.414062 -12.710938 5.566406 -12.644531 6.578125 -12.3125 C 7.597656 -11.976562 8.421875 -11.40625 9.046875 -10.59375 C 9.679688 -9.789062 10.09375 -8.789062 10.28125 -7.59375 C 10.46875 -6.382812 10.378906 -5.300781 10.015625 -4.34375 C 9.660156 -3.382812 9.050781 -2.597656 8.1875 -1.984375 C 7.320312 -1.367188 6.242188 -0.960938 4.953125 -0.765625 L 1.296875 -0.203125 L -0.53125 -11.953125 Z M 4.75 -2.03125 C 6.257812 -2.269531 7.359375 -2.851562 8.046875 -3.78125 C 8.734375 -4.707031 8.960938 -5.898438 8.734375 -7.359375 C 8.503906 -8.816406 7.921875 -9.890625 6.984375 -10.578125 C 6.046875 -11.273438 4.828125 -11.503906 3.328125 -11.265625 L 1.203125 -10.9375 L 2.625 -1.703125 Z M 4.75 -2.03125 "/></g></g></g><g fill="#e8eef1" fill-opacity="1"><g transform="translate(216.22082, 331.375216)"><g><path d="M 7.34375 -1.875 L 3.40625 -5.875 L 1.5625 -5.40625 L 2.765625 -0.703125 L 1.265625 -0.328125 L -1.671875 -11.84375 L 2.0625 -12.796875 C 2.925781 -13.015625 3.691406 -13.050781 4.359375 -12.90625 C 5.035156 -12.769531 5.585938 -12.484375 6.015625 -12.046875 C 6.441406 -11.617188 6.738281 -11.078125 6.90625 -10.421875 C 7.101562 -9.640625 7.050781 -8.882812 6.75 -8.15625 C 6.445312 -7.4375 5.867188 -6.859375 5.015625 -6.421875 L 9.140625 -2.34375 Z M 1.25 -6.625 L 3.484375 -7.203125 C 4.296875 -7.410156 4.851562 -7.765625 5.15625 -8.265625 C 5.457031 -8.773438 5.523438 -9.363281 5.359375 -10.03125 C 5.179688 -10.71875 4.84375 -11.195312 4.34375 -11.46875 C 3.851562 -11.738281 3.195312 -11.769531 2.375 -11.5625 L 0.140625 -10.984375 Z M 1.25 -6.625 "/></g></g></g><g fill="#e8eef1" fill-opacity="1"><g transform="translate(228.42429, 328.143454)"><g><path d="M 5.140625 -14.421875 L 3.953125 -6.15625 L 5.4375 -1.921875 L 3.984375 -1.40625 L 2.5 -5.640625 L -3.640625 -11.328125 L -2.015625 -11.90625 L 2.75 -7.203125 L 3.515625 -13.859375 Z M 5.140625 -14.421875 "/></g></g></g><g fill="#e8eef1" fill-opacity="1"><g transform="translate(239.77216, 323.970219)"><g/></g></g><g fill="#e8eef1" fill-opacity="1"><g transform="translate(246.013819, 321.37997)"><g><path d="M -2.125 -5.609375 C -2.65625 -6.628906 -2.90625 -7.671875 -2.875 -8.734375 C -2.851562 -9.804688 -2.5625 -10.785156 -2 -11.671875 C -1.445312 -12.554688 -0.679688 -13.253906 0.296875 -13.765625 C 1.429688 -14.367188 2.570312 -14.617188 3.71875 -14.515625 C 4.875 -14.421875 5.914062 -13.972656 6.84375 -13.171875 L 5.203125 -12.296875 C 4.566406 -12.765625 3.882812 -13.023438 3.15625 -13.078125 C 2.425781 -13.140625 1.679688 -12.96875 0.921875 -12.5625 C 0.179688 -12.175781 -0.382812 -11.65625 -0.78125 -11 C -1.175781 -10.351562 -1.375 -9.625 -1.375 -8.8125 C -1.375 -8.007812 -1.15625 -7.1875 -0.71875 -6.34375 C -0.269531 -5.507812 0.28125 -4.863281 0.9375 -4.40625 C 1.601562 -3.957031 2.316406 -3.71875 3.078125 -3.6875 C 3.835938 -3.65625 4.585938 -3.832031 5.328125 -4.21875 C 6.085938 -4.625 6.648438 -5.132812 7.015625 -5.75 C 7.390625 -6.375 7.5625 -7.082031 7.53125 -7.875 L 9.171875 -8.75 C 9.304688 -7.53125 9.085938 -6.421875 8.515625 -5.421875 C 7.941406 -4.421875 7.085938 -3.617188 5.953125 -3.015625 C 4.972656 -2.503906 3.960938 -2.265625 2.921875 -2.296875 C 1.878906 -2.335938 0.910156 -2.644531 0.015625 -3.21875 C -0.867188 -3.789062 -1.582031 -4.585938 -2.125 -5.609375 Z M -2.125 -5.609375 "/></g></g></g><g fill="#e8eef1" fill-opacity="1"><g transform="translate(259.716859, 314.015524)"><g><path d="M 5.609375 -3.65625 C 4.691406 -3.039062 3.710938 -2.691406 2.671875 -2.609375 C 1.628906 -2.535156 0.628906 -2.726562 -0.328125 -3.1875 C -1.285156 -3.65625 -2.085938 -4.367188 -2.734375 -5.328125 C -3.390625 -6.285156 -3.757812 -7.296875 -3.84375 -8.359375 C -3.925781 -9.429688 -3.738281 -10.4375 -3.28125 -11.375 C -2.820312 -12.320312 -2.132812 -13.101562 -1.21875 -13.71875 C -0.300781 -14.34375 0.675781 -14.695312 1.71875 -14.78125 C 2.769531 -14.863281 3.769531 -14.671875 4.71875 -14.203125 C 5.664062 -13.742188 6.472656 -13.023438 7.140625 -12.046875 C 7.796875 -11.078125 8.164062 -10.066406 8.25 -9.015625 C 8.332031 -7.960938 8.140625 -6.960938 7.671875 -6.015625 C 7.210938 -5.066406 6.523438 -4.28125 5.609375 -3.65625 Z M 4.859375 -4.78125 C 5.546875 -5.25 6.054688 -5.832031 6.390625 -6.53125 C 6.722656 -7.226562 6.84375 -7.976562 6.75 -8.78125 C 6.664062 -9.582031 6.359375 -10.375 5.828125 -11.15625 C 5.285156 -11.945312 4.660156 -12.53125 3.953125 -12.90625 C 3.242188 -13.28125 2.503906 -13.441406 1.734375 -13.390625 C 0.972656 -13.347656 0.242188 -13.085938 -0.453125 -12.609375 C -1.148438 -12.140625 -1.660156 -11.554688 -1.984375 -10.859375 C -2.304688 -10.171875 -2.425781 -9.425781 -2.34375 -8.625 C -2.269531 -7.820312 -1.960938 -7.023438 -1.421875 -6.234375 C -0.890625 -5.453125 -0.265625 -4.875 0.453125 -4.5 C 1.171875 -4.125 1.910156 -3.957031 2.671875 -4 C 3.441406 -4.050781 4.171875 -4.3125 4.859375 -4.78125 Z M 4.859375 -4.78125 "/></g></g></g><g fill="#e8eef1" fill-opacity="1"><g transform="translate(272.538653, 305.012699)"><g><path d="M 1.40625 -2.796875 L 4.640625 -5.4375 L 5.4375 -4.453125 L 1.015625 -0.828125 L -6.53125 -10.015625 L -5.34375 -11 Z M 1.40625 -2.796875 "/></g></g></g><g fill="#e8eef1" fill-opacity="1"><g transform="translate(279.839721, 298.928107)"><g><path d="M 1.203125 -2.875 L 4.25 -5.734375 L 5.125 -4.8125 L 0.953125 -0.90625 L -7.203125 -9.5625 L -6.078125 -10.609375 Z M 1.203125 -2.875 "/></g></g></g><g fill="#e8eef1" fill-opacity="1"><g transform="translate(286.745927, 292.355896)"><g><path d="M -5.890625 -9.296875 L -2.96875 -6.609375 L -0.03125 -9.8125 L 0.921875 -8.953125 L -2.015625 -5.75 L 1 -2.96875 L 4.28125 -6.546875 L 5.21875 -5.6875 L 0.890625 -0.96875 L -7.875 -9.015625 L -3.546875 -13.734375 L -2.609375 -12.875 Z M -5.890625 -9.296875 "/></g></g></g><g fill="#e8eef1" fill-opacity="1"><g transform="translate(294.21468, 284.2208)"><g><path d="M -0.5 -13.328125 C -1.25 -13.484375 -1.960938 -13.425781 -2.640625 -13.15625 C -3.328125 -12.882812 -3.921875 -12.414062 -4.421875 -11.75 C -4.921875 -11.082031 -5.21875 -10.367188 -5.3125 -9.609375 C -5.414062 -8.859375 -5.300781 -8.117188 -4.96875 -7.390625 C -4.632812 -6.660156 -4.09375 -6.015625 -3.34375 -5.453125 C -2.601562 -4.890625 -1.832031 -4.546875 -1.03125 -4.421875 C -0.238281 -4.296875 0.503906 -4.378906 1.203125 -4.671875 C 1.910156 -4.972656 2.515625 -5.457031 3.015625 -6.125 C 3.710938 -7.050781 4.007812 -8.019531 3.90625 -9.03125 C 3.8125 -10.050781 3.332031 -10.972656 2.46875 -11.796875 L -0.40625 -8 L -1.421875 -8.765625 L 2.453125 -13.875 L 3.421875 -13.15625 C 4.140625 -12.488281 4.660156 -11.703125 4.984375 -10.796875 C 5.316406 -9.890625 5.414062 -8.953125 5.28125 -7.984375 C 5.15625 -7.023438 4.773438 -6.125 4.140625 -5.28125 C 3.472656 -4.40625 2.65625 -3.757812 1.6875 -3.34375 C 0.726562 -2.9375 -0.273438 -2.796875 -1.328125 -2.921875 C -2.390625 -3.054688 -3.382812 -3.472656 -4.3125 -4.171875 C -5.226562 -4.867188 -5.894531 -5.707031 -6.3125 -6.6875 C -6.726562 -7.675781 -6.867188 -8.691406 -6.734375 -9.734375 C -6.609375 -10.773438 -6.210938 -11.734375 -5.546875 -12.609375 C -4.785156 -13.617188 -3.859375 -14.320312 -2.765625 -14.71875 C -1.679688 -15.113281 -0.550781 -15.144531 0.625 -14.8125 Z M -0.5 -13.328125 "/></g></g></g><g fill="#e8eef1" fill-opacity="1"><g transform="translate(303.429211, 271.686121)"><g><path d="M -7.546875 -8.015625 L -4.171875 -5.9375 L -1.890625 -9.625 L -0.796875 -8.953125 L -3.078125 -5.265625 L 0.40625 -3.109375 L 2.953125 -7.234375 L 4.046875 -6.5625 L 0.6875 -1.109375 L -9.4375 -7.359375 L -6.078125 -12.8125 L -5 -12.140625 Z M -7.546875 -8.015625 "/></g></g></g></svg>